<svg xmlns="http://www.w3.org/2000/svg" width="14.491" height="13.823" viewBox="0 0 14.491 13.823">
  <g id="Grupo_2165" data-name="Grupo 2165" transform="translate(-394.931 -540.449)">
    <g id="Grupo_72" data-name="Grupo 72">
      <path id="Caminho_97" data-name="Caminho 97" d="M402.17,540.45c.35-.06,2.24,4.54,2.24,4.54s4.91.49,5.01.73-3.52,3.45-3.52,3.45,1.21,4.71.76,5.07-4.48-2.35-4.48-2.35-4.3,2.51-4.48,2.35a41.806,41.806,0,0,1,.86-4.99s-3.84-3.3-3.62-3.53a43.6,43.6,0,0,1,5.01-.73S401.82,540.51,402.17,540.45Z" fill="#fd0"/>
    </g>
    <g id="Grupo_73" data-name="Grupo 73" opacity="0.6">
      <path id="Caminho_98" data-name="Caminho 98" d="M402.31,547.66c.17.3,3.89,5.47,4.01,5.49s-.79-4.31-.79-4.31Z" fill="#eba418" fill-rule="evenodd"/>
    </g>
    <g id="Grupo_74" data-name="Grupo 74">
      <path id="Caminho_99" data-name="Caminho 99" d="M402.31,547.66s6.57-1.85,6.57-1.74-3.36,3.01-3.36,3.01S402.31,547.71,402.31,547.66Z" fill="#f09905"/>
    </g>
    <g id="Grupo_75" data-name="Grupo 75" opacity="0.6">
      <path id="Caminho_100" data-name="Caminho 100" d="M402.25,540.92c-.03.52-.06,6.39-.06,6.39s1.82-2.17,1.85-2.28A37.44,37.44,0,0,0,402.25,540.92Z" fill="#eba418" fill-rule="evenodd"/>
    </g>
    <g id="Grupo_76" data-name="Grupo 76" opacity="0.5">
      <path id="Caminho_101" data-name="Caminho 101" d="M398.93,548.94a34.886,34.886,0,0,0-.92,4.39,53.5,53.5,0,0,0,3.65-5.6A17.878,17.878,0,0,0,398.93,548.94Z" fill="#fff"/>
    </g>
    <g id="Grupo_77" data-name="Grupo 77">
      <path id="Caminho_102" data-name="Caminho 102" d="M395.31,545.89c.26.12,6.35,1.69,6.35,1.83a17.652,17.652,0,0,1-2.73,1.32A36.323,36.323,0,0,1,395.31,545.89Z" fill="#f09905"/>
    </g>
    <g id="Grupo_78" data-name="Grupo 78" opacity="0.6">
      <path id="Caminho_103" data-name="Caminho 103" d="M401.97,548.13a32.56,32.56,0,0,1-.04,3.47,26.258,26.258,0,0,1-3.82,2.13C398.2,553.5,401.94,547.98,401.97,548.13Z" fill="#eba418" fill-rule="evenodd"/>
    </g>
    <g id="Grupo_79" data-name="Grupo 79" opacity="0.5">
      <path id="Caminho_104" data-name="Caminho 104" d="M402.25,548.23c.4.35,4.14,5.55,4.14,5.7a38.1,38.1,0,0,1-3.76-2.23A34.747,34.747,0,0,1,402.25,548.23Z" fill="#fff"/>
    </g>
    <g id="Grupo_80" data-name="Grupo 80" opacity="0.5">
      <path id="Caminho_105" data-name="Caminho 105" d="M404.4,545.4a16.56,16.56,0,0,0-1.82,1.88c.18,0,5.79-1.42,5.67-1.5A23.687,23.687,0,0,0,404.4,545.4Z" fill="#fff"/>
    </g>
    <g id="Grupo_81" data-name="Grupo 81" opacity="0.5">
      <path id="Caminho_106" data-name="Caminho 106" d="M395.83,545.8c.46,0,3.99-.46,3.99-.46l1.91,2.11S398.89,546.64,395.83,545.8Z" fill="#fff"/>
    </g>
    <g id="Grupo_82" data-name="Grupo 82" opacity="0.5">
      <path id="Caminho_107" data-name="Caminho 107" d="M400.13,545.14a24.118,24.118,0,0,0,1.77,1.89c.07-.05.15-5.94.1-6.02S401.2,543.17,400.13,545.14Z" fill="#fff"/>
    </g>
    <g id="Grupo_83" data-name="Grupo 83">
      <path id="Caminho_108" data-name="Caminho 108" d="M400.79,545.89c-.32-.36-.6-.68-.66-.74.05-.08.09-.17.13-.25l1.74-1.46c-.01.51-.01,1.05-.02,1.55C401.74,545.17,401.2,545.57,400.79,545.89Zm1.17.15-.57.5c.13.14.26.27.35.36l.2-.16C401.94,546.56,401.95,546.32,401.96,546.04Z" fill="#fff"/>
    </g>
    <g id="Grupo_84" data-name="Grupo 84">
      <path id="Caminho_109" data-name="Caminho 109" d="M404.04,550.57l-1.06,1.38c-.17-.11-.29-.19-.34-.23.34-.42.84-1.03,1.18-1.45C403.9,550.37,403.97,550.47,404.04,550.57Zm1.7,2.38q-.165-.24-.36-.51l-.47.7c.22.13.43.25.62.36Zm-3.34-2.98c.05.42.1.85.14,1.17.34-.38.78-.86,1.07-1.17-.19-.26-.37-.5-.53-.72Z" fill="#fff"/>
    </g>
    <g id="Grupo_85" data-name="Grupo 85">
      <path id="Caminho_110" data-name="Caminho 110" d="M403.33,546.42c-.03.05-.39.57-.31.57s.01,0,5.18-1.19a36.349,36.349,0,0,1-5.62,1.47C402.38,547.29,403.33,546.42,403.33,546.42Z" fill="#fff"/>
    </g>
    <g id="Grupo_86" data-name="Grupo 86">
      <path id="Caminho_111" data-name="Caminho 111" d="M395.83,545.8c.51.08,5.12,1.22,5.24,1.22s.17-.09.01-.31c.71.66.65.74.65.74C401.58,547.5,395.83,545.8,395.83,545.8Z" fill="#fff"/>
    </g>
    <g id="Grupo_87" data-name="Grupo 87">
      <path id="Caminho_112" data-name="Caminho 112" d="M402.33,549.15c0-.16-.05-.87.03-.74s3.64,4.92,3.64,4.92a31.125,31.125,0,0,0-3.79-5.35A4.955,4.955,0,0,0,402.33,549.15Z" fill="#fff"/>
    </g>
  </g>
</svg>
