<svg xmlns="http://www.w3.org/2000/svg" width="33.934" height="25.648" viewBox="0 0 33.934 25.648">
  <g id="Grupo_575" data-name="Grupo 575" transform="translate(-526.966 -756.722)">
    <g id="Grupo_574" data-name="Grupo 574">
      <path id="Caminho_627" data-name="Caminho 627" d="M529.01,782.37c.61-1.54,1.14-2.92,1.7-4.27a.757.757,0,0,0-.21-1.01,10.659,10.659,0,0,1-3.47-6.65,9.932,9.932,0,0,1,2.64-7.89,16.668,16.668,0,0,1,9.28-5.24,21.059,21.059,0,0,1,15.8,2.35,13.732,13.732,0,0,1,4.17,3.8,9.863,9.863,0,0,1-.19,12.1,16.45,16.45,0,0,1-9.6,5.85,21.6,21.6,0,0,1-13.71-1.11,1.181,1.181,0,0,0-.94,0C532.72,780.98,530.96,781.63,529.01,782.37Z" fill="#b30617"/>
    </g>
  </g>
</svg>
