<svg xmlns="http://www.w3.org/2000/svg" width="122.24" height="29.761" viewBox="0 0 122.24 29.761">
  <g id="Grupo_2169" data-name="Grupo 2169" transform="translate(-539.54 -349.159)">
    <g id="Grupo_25" data-name="Grupo 25">
      <path id="Caminho_21" data-name="Caminho 21" d="M539.54,365.58c.27-.06.19-.29.22-.45a11.52,11.52,0,0,1,2.91-6,8.978,8.978,0,0,1,10.27-1.78,6.628,6.628,0,0,1,1.67,1.31c-.03.15-.11.29.01.43a.15.15,0,0,0,.13.01c.15-.11.11-.27.07-.42,0-.02-.01-.03-.01-.05.02-.44.05-.88.07-1.32.01-.28.12-.42.43-.43q2.595-.015,5.19-.06c.35-.01.43.15.42.46-.01.76,0,1.53,0,2.29l.03,18.18c0,.74,0,.74-.76.74-1.56.01-3.12.01-4.68.04-.45.01-.62-.13-.58-.58.02-.22-.02-.44,0-.66.03-.44-.14-.43-.47-.26a16.174,16.174,0,0,1-4.24,1.68c-.1.02-.2.05-.19.19h-2.75c-.01-.26-.24-.2-.38-.24a9.434,9.434,0,0,1-3.17-1.58,10.811,10.811,0,0,1-3.97-6.89c-.03-.16.05-.4-.22-.46C539.54,368.36,539.54,366.97,539.54,365.58Zm15.3,2.16a6.875,6.875,0,0,0-1-3.78,3.548,3.548,0,0,0-4.05-1.72,4.015,4.015,0,0,0-2.91,1.78,7.039,7.039,0,0,0,.16,7.36,3.962,3.962,0,0,0,6.95-.23A6.672,6.672,0,0,0,554.84,367.74Z" fill="#a20726"/>
    </g>
    <g id="Grupo_26" data-name="Grupo 26">
      <path id="Caminho_22" data-name="Caminho 22" d="M630.51,378.92c-.06-.26-.29-.18-.46-.21a11.561,11.561,0,0,1-3.4-21.48c4.02-2.15,11.26-.93,13.42,5.48a19.409,19.409,0,0,1,.9,6.42c0,.44-.16.59-.6.59-2.55.03-5.09.08-7.64.13-1.7.03-3.39.08-5.09.08-.49,0-.47.18-.34.54a4.483,4.483,0,0,0,4.44,3.03,17.121,17.121,0,0,0,5.62-1.06c.69-.22,1.38-.47,2.07-.71.27-.1.46-.1.45.28a14.791,14.791,0,0,1-.52,4.18,1.533,1.533,0,0,1-.64.88,10.491,10.491,0,0,1-4.08,1.63c-.14.03-.37-.05-.39.22Zm.4-13.49v.02c1.07,0,2.14-.01,3.2.01.43.01.53-.15.42-.55a5.088,5.088,0,0,0-1.07-2.17,3.3,3.3,0,0,0-4.81-.26,5.072,5.072,0,0,0-1.41,2.48c-.11.38.05.48.4.48C628.74,365.42,629.83,365.43,630.91,365.43Z" fill="#a20726"/>
    </g>
    <g id="Grupo_27" data-name="Grupo 27">
      <path id="Caminho_23" data-name="Caminho 23" d="M661.78,357.84c-.31.03-.26.32-.32.5q-3.315,9.765-6.59,19.53a.894.894,0,0,1-1.04.73c-1.85-.05-3.7-.06-5.55-.04a.825.825,0,0,1-.89-.61c-1.16-2.85-2.17-5.75-3.17-8.65-1.33-3.83-2.66-7.66-3.76-11.56-.24-.86-.23-.86.69-.87,1.68,0,3.36.01,5.04-.03a.717.717,0,0,1,.85.62c1.22,4.25,2.48,8.5,3.72,12.75.05.18.11.35.18.56.24-.13.24-.35.29-.52,1.29-4.22,2.58-8.43,3.85-12.66a.734.734,0,0,1,.81-.62c1.75,0,3.5-.05,5.24-.08.22,0,.44-.04.65-.06C661.78,357.16,661.78,357.5,661.78,357.84Z" fill="#a20726"/>
    </g>
    <g id="Grupo_28" data-name="Grupo 28">
      <path id="Caminho_24" data-name="Caminho 24" d="M569.68,358.47a.443.443,0,0,0,.41-.18c2.11-2.23,7.52-2.6,9.93-.02.97,1.04,1.09,1.01,2.17.03a7.453,7.453,0,0,1,7.14-1.61,6.4,6.4,0,0,1,5.02,5.52,22.965,22.965,0,0,1,.26,5.43c-.07,1.61-.2,3.22-.16,4.83a8.634,8.634,0,0,0,1.82,5.7c.2.23.12.33-.16.33-1.88.01-3.77.02-5.65.04a.8.8,0,0,1-.56-.3,5.941,5.941,0,0,1-1.55-3.36,24.928,24.928,0,0,1-.16-5.18,28.409,28.409,0,0,0-.04-4.88c-.03-.22-.07-.44-.12-.65a2.421,2.421,0,0,0-2.35-2.09,2.653,2.653,0,0,0-2.84,1.7,9.286,9.286,0,0,0-.54,3.8c.01,1.75.08,3.5-.03,5.24a8.685,8.685,0,0,0,1.26,4.9c.39.7.37.71-.45.73-1.65.03-3.29.05-4.94.1a.966.966,0,0,1-.92-.48,7.836,7.836,0,0,1-1.19-3.84,49.651,49.651,0,0,1,.05-5.85,14.452,14.452,0,0,0-.28-4.15,2.647,2.647,0,0,0-2.51-2.22,2.283,2.283,0,0,0-2.22,1.16,8.768,8.768,0,0,0-1.06,3.84,81.736,81.736,0,0,0,.02,9.26c.01.59-.02,1.19,0,1.78.01.38-.15.48-.51.48-1.68,0-3.36,0-5.04.04-.49.01-.58-.17-.59-.62q-.045-10.125-.12-20.26c0-.12.01-.24,0-.36-.02-.27.1-.4.38-.4,1.68-.02,3.36-.04,5.04-.07.35-.01.5.16.5.49C569.69,357.7,569.68,358.07,569.68,358.47Z" fill="#a20726"/>
    </g>
    <g id="Grupo_29" data-name="Grupo 29">
      <path id="Caminho_25" data-name="Caminho 25" d="M597.71,363.91c0-4.67.01-9.33-.01-14,0-.52.14-.66.65-.66,1.71,0,3.43-.04,5.14-.09.42-.01.55.12.55.54-.01,2.61.01,5.23.02,7.84,0,1.07.01,1.06.91.55a12.157,12.157,0,0,1,3.84-1.57,7.583,7.583,0,0,1,6.22,1.75,10.652,10.652,0,0,1,4.01,7.09,12.429,12.429,0,0,1-3.27,10.89,8.291,8.291,0,0,1-6.4,2.49,9.231,9.231,0,0,1-5.18-1.42c-.25-.16-.33-.13-.38.18-.16,1.1-.17,1.1-1.29,1.09l-3.82-.03c-.84-.01-.84-.01-.85-.87V363.9A.706.706,0,0,1,597.71,363.91Zm14.96,3.82a7.181,7.181,0,0,0-1.21-4.1,3.212,3.212,0,0,0-3.19-1.49,4.885,4.885,0,0,0-3.86,2.66,6.7,6.7,0,0,0,.84,7.03,3.968,3.968,0,0,0,6.67-.78A7.377,7.377,0,0,0,612.67,367.73Z" fill="#a20726"/>
    </g>
    <g id="Grupo_30" data-name="Grupo 30">
      <path id="Caminho_26" data-name="Caminho 26" d="M554.81,358.64c0,.02.01.03.01.05.03.15.07.3-.07.42-.03.02-.11.02-.13-.01-.12-.14-.04-.29-.01-.43Z" fill="#a20726"/>
    </g>
  </g>
</svg>
