<svg id="Componente_1_1" data-name="Componente 1 – 1" xmlns="http://www.w3.org/2000/svg" width="52.64" height="52.64" viewBox="0 0 52.64 52.64">
  <g id="Grupo_1709" data-name="Grupo 1709" transform="translate(-1094.36 -501.66)">
    <g id="Grupo_1668" data-name="Grupo 1668">
      <path id="Caminho_1868" data-name="Caminho 1868" d="M1144.01,525.16a23.32,23.32,0,1,1-41.81-14.23,15.289,15.289,0,0,1,11.42.09c8.48,3.53,21.55,2.37,25.97.48.01.01.01.01.03.01A23.3,23.3,0,0,1,1144.01,525.16Z" fill="#ffe8b6"/>
    </g>
    <g id="Grupo_1669" data-name="Grupo 1669">
      <path id="Caminho_1869" data-name="Caminho 1869" d="M1144.01,527.98a23.32,23.32,0,1,1-41.81-14.23,15.289,15.289,0,0,1,11.42.09c8.48,3.53,21.55,2.37,25.97.48.01.01.01.01.03.01A23.348,23.348,0,0,1,1144.01,527.98Z" fill="#ffc12c"/>
    </g>
    <g id="Grupo_1672" data-name="Grupo 1672">
      <g id="Grupo_1670" data-name="Grupo 1670">
        <circle id="Elipse_12" data-name="Elipse 12" cx="1.54" cy="1.54" r="1.54" transform="translate(1102.13 518.55)" fill="#e8961c"/>
      </g>
      <g id="Grupo_1671" data-name="Grupo 1671">
        <circle id="Elipse_13" data-name="Elipse 13" cx="1.54" cy="1.54" r="1.54" transform="translate(1101.93 518.34)" fill="#ffc12c"/>
      </g>
    </g>
    <g id="Grupo_1675" data-name="Grupo 1675">
      <g id="Grupo_1673" data-name="Grupo 1673">
        <circle id="Elipse_14" data-name="Elipse 14" cx="1.54" cy="1.54" r="1.54" transform="translate(1102.13 529.15)" fill="#e8961c"/>
      </g>
      <g id="Grupo_1674" data-name="Grupo 1674">
        <circle id="Elipse_15" data-name="Elipse 15" cx="1.54" cy="1.54" r="1.54" transform="translate(1101.93 528.94)" fill="#ffc12c"/>
      </g>
    </g>
    <g id="Grupo_1678" data-name="Grupo 1678">
      <g id="Grupo_1676" data-name="Grupo 1676">
        <circle id="Elipse_16" data-name="Elipse 16" cx="1.54" cy="1.54" r="1.54" transform="translate(1114.15 519.25)" fill="#e8961c"/>
      </g>
      <g id="Grupo_1677" data-name="Grupo 1677">
        <circle id="Elipse_17" data-name="Elipse 17" cx="1.54" cy="1.54" r="1.54" transform="translate(1113.94 519.05)" fill="#ffc12c"/>
      </g>
    </g>
    <g id="Grupo_1681" data-name="Grupo 1681">
      <g id="Grupo_1679" data-name="Grupo 1679">
        <circle id="Elipse_18" data-name="Elipse 18" cx="1.54" cy="1.54" r="1.54" transform="translate(1116.97 526.32)" fill="#e8961c"/>
      </g>
      <g id="Grupo_1680" data-name="Grupo 1680">
        <circle id="Elipse_19" data-name="Elipse 19" cx="1.54" cy="1.54" r="1.54" transform="translate(1116.77 526.12)" fill="#ffc12c"/>
      </g>
    </g>
    <g id="Grupo_1684" data-name="Grupo 1684">
      <g id="Grupo_1682" data-name="Grupo 1682">
        <circle id="Elipse_20" data-name="Elipse 20" cx="1.54" cy="1.54" r="1.54" transform="translate(1136.77 524.91)" fill="#e8961c"/>
      </g>
      <g id="Grupo_1683" data-name="Grupo 1683">
        <circle id="Elipse_21" data-name="Elipse 21" cx="1.54" cy="1.54" r="1.54" transform="translate(1136.56 524.7)" fill="#ffc12c"/>
      </g>
    </g>
    <g id="Grupo_1687" data-name="Grupo 1687">
      <g id="Grupo_1685" data-name="Grupo 1685">
        <circle id="Elipse_22" data-name="Elipse 22" cx="1.54" cy="1.54" r="1.54" transform="translate(1126.87 528.44)" fill="#e8961c"/>
      </g>
      <g id="Grupo_1686" data-name="Grupo 1686">
        <circle id="Elipse_23" data-name="Elipse 23" cx="1.54" cy="1.54" r="1.54" transform="translate(1126.66 528.24)" fill="#ffc12c"/>
      </g>
    </g>
    <g id="Grupo_1690" data-name="Grupo 1690">
      <g id="Grupo_1688" data-name="Grupo 1688">
        <circle id="Elipse_24" data-name="Elipse 24" cx="1.54" cy="1.54" r="1.54" transform="translate(1128.99 519.25)" fill="#e8961c"/>
      </g>
      <g id="Grupo_1689" data-name="Grupo 1689">
        <circle id="Elipse_25" data-name="Elipse 25" cx="1.54" cy="1.54" r="1.54" transform="translate(1128.79 519.05)" fill="#ffc12c"/>
      </g>
    </g>
    <g id="Grupo_1693" data-name="Grupo 1693">
      <g id="Grupo_1691" data-name="Grupo 1691">
        <circle id="Elipse_26" data-name="Elipse 26" cx="1.54" cy="1.54" r="1.54" transform="translate(1128.99 539.75)" fill="#e8961c"/>
      </g>
      <g id="Grupo_1692" data-name="Grupo 1692">
        <circle id="Elipse_27" data-name="Elipse 27" cx="1.54" cy="1.54" r="1.54" transform="translate(1128.79 539.55)" fill="#ffc12c"/>
      </g>
    </g>
    <g id="Grupo_1696" data-name="Grupo 1696">
      <g id="Grupo_1694" data-name="Grupo 1694">
        <circle id="Elipse_28" data-name="Elipse 28" cx="1.54" cy="1.54" r="1.54" transform="translate(1121.92 535.51)" fill="#e8961c"/>
      </g>
      <g id="Grupo_1695" data-name="Grupo 1695">
        <circle id="Elipse_29" data-name="Elipse 29" cx="1.54" cy="1.54" r="1.54" transform="translate(1121.72 535.31)" fill="#ffc12c"/>
      </g>
    </g>
    <g id="Grupo_1699" data-name="Grupo 1699">
      <g id="Grupo_1697" data-name="Grupo 1697">
        <circle id="Elipse_30" data-name="Elipse 30" cx="1.54" cy="1.54" r="1.54" transform="translate(1110.61 531.27)" fill="#e8961c"/>
      </g>
      <g id="Grupo_1698" data-name="Grupo 1698">
        <circle id="Elipse_31" data-name="Elipse 31" cx="1.54" cy="1.54" r="1.54" transform="translate(1110.41 531.06)" fill="#ffc12c"/>
      </g>
    </g>
    <g id="Grupo_1702" data-name="Grupo 1702">
      <g id="Grupo_1700" data-name="Grupo 1700">
        <circle id="Elipse_32" data-name="Elipse 32" cx="1.54" cy="1.54" r="1.54" transform="translate(1107.79 542.58)" fill="#e8961c"/>
      </g>
      <g id="Grupo_1701" data-name="Grupo 1701">
        <circle id="Elipse_33" data-name="Elipse 33" cx="1.54" cy="1.54" r="1.54" transform="translate(1107.58 542.37)" fill="#ffc12c"/>
      </g>
    </g>
    <g id="Grupo_1705" data-name="Grupo 1705">
      <g id="Grupo_1703" data-name="Grupo 1703">
        <circle id="Elipse_34" data-name="Elipse 34" cx="1.54" cy="1.54" r="1.54" transform="translate(1119.09 544.7)" fill="#e8961c"/>
      </g>
      <g id="Grupo_1704" data-name="Grupo 1704">
        <circle id="Elipse_35" data-name="Elipse 35" cx="1.54" cy="1.54" r="1.54" transform="translate(1118.89 544.49)" fill="#ffc12c"/>
      </g>
    </g>
    <g id="Grupo_1708" data-name="Grupo 1708">
      <g id="Grupo_1706" data-name="Grupo 1706">
        <circle id="Elipse_36" data-name="Elipse 36" cx="1.54" cy="1.54" r="1.54" transform="translate(1134.64 532.68)" fill="#e8961c"/>
      </g>
      <g id="Grupo_1707" data-name="Grupo 1707">
        <circle id="Elipse_37" data-name="Elipse 37" cx="1.54" cy="1.54" r="1.54" transform="translate(1134.44 532.48)" fill="#ffc12c"/>
      </g>
    </g>
  </g>
  <g id="Grupo_1710" data-name="Grupo 1710" transform="translate(-1094.36 -501.66)">
    <path id="Caminho_1870" data-name="Caminho 1870" d="M1120.69,504.66a23.291,23.291,0,1,1-18.48,9.09,23.326,23.326,0,0,1,18.48-9.09m0-3a26.3,26.3,0,1,0,21.35,10.93,26.2,26.2,0,0,0-21.35-10.93Z" fill="#a20726"/>
  </g>
</svg>
