<?xml version="1.0" encoding="UTF-8"?>
<!DOCTYPE svg PUBLIC "-//W3C//DTD SVG 1.0//EN" "http://www.w3.org/TR/2001/REC-SVG-20010904/DTD/svg10.dtd">
<!-- Creator: CorelDRAW 2020 (64 Bit) -->
<svg xmlns="http://www.w3.org/2000/svg" xml:space="preserve" width="150mm" height="159.5mm" version="1.0" shape-rendering="geometricPrecision" text-rendering="geometricPrecision" image-rendering="optimizeQuality" fill-rule="evenodd" clip-rule="evenodd"
viewBox="0 0 150 160"
 xmlns:xlink="http://www.w3.org/1999/xlink"
 xmlns:xodm="http://www.corel.com/coreldraw/odm/2003">
 <g id="Camada_x0020_1">
  <metadata id="CorelCorpID_0Corel-Layer"/>
  <path fill="#72C37F" stroke="#FEFEFE" stroke-width="4" stroke-miterlimit="22.9256" d="M66 94c4,-4 8,-8 12,-12l30 -30c6,-6 7,-6 14,1 7,7 6,7 -7,20l-42 42c-7,7 -7,7 -14,0 -2,-2 -4,-4 -6,-6 -3,-3 -23,-22 -23,-24 -1,-3 3,-6 4,-7 7,-7 7,-7 14,-1 3,3 17,17 18,18zm-63 -43c2,23 7,40 17,58 2,3 5,9 7,11l4 5c2,2 2,3 4,5l15 14c6,4 9,7 17,11 6,2 9,3 15,0 5,-2 8,-4 12,-7 2,-1 4,-2 6,-4 8,-6 18,-15 23,-24 6,-9 9,-12 14,-23 4,-9 7,-18 9,-29 1,-8 4,-27 1,-34 -2,-4 -5,-7 -10,-9 -4,-2 -9,-4 -13,-5l-40 -16c-6,-2 -8,-3 -15,0l-53 22c-12,5 -14,9 -12,24z"/>
  <path fill="#FEFEFE" d="M66 94c-2,-1 -15,-14 -18,-18 -7,-7 -7,-6 -14,1 -1,1 -5,4 -4,7 0,2 21,21 23,24 2,2 4,4 6,6 7,7 7,7 14,0l42 -42c13,-13 14,-12 7,-20 -7,-7 -7,-7 -14,-1l-30 30c-4,4 -8,8 -12,12z"/>
 </g>
</svg>
