<svg xmlns="http://www.w3.org/2000/svg" width="14.491" height="13.823" viewBox="0 0 14.491 13.823">
  <g id="Grupo_2166" data-name="Grupo 2166" transform="translate(-462.741 -540.449)">
    <g id="Grupo_140" data-name="Grupo 140">
      <path id="Caminho_161" data-name="Caminho 161" d="M469.98,540.45c.35-.06,2.24,4.54,2.24,4.54s4.91.49,5.01.73-3.52,3.45-3.52,3.45,1.21,4.71.76,5.07-4.48-2.35-4.48-2.35-4.3,2.51-4.48,2.35a41.806,41.806,0,0,1,.86-4.99s-3.84-3.3-3.62-3.53a43.6,43.6,0,0,1,5.01-.73S469.63,540.51,469.98,540.45Z" fill="#898989"/>
    </g>
    <g id="Grupo_141" data-name="Grupo 141">
      <path id="Caminho_162" data-name="Caminho 162" d="M470.13,547.66c.17.3,3.89,5.47,4.01,5.49s-.79-4.31-.79-4.31Z" fill="#898989"/>
    </g>
    <g id="Grupo_142" data-name="Grupo 142">
      <path id="Caminho_163" data-name="Caminho 163" d="M470.13,547.66s6.57-1.85,6.57-1.74-3.36,3.01-3.36,3.01S470.13,547.71,470.13,547.66Z" fill="#898989"/>
    </g>
    <g id="Grupo_143" data-name="Grupo 143">
      <path id="Caminho_164" data-name="Caminho 164" d="M470.07,540.92c-.03.52-.06,6.39-.06,6.39s1.82-2.17,1.85-2.28A41.7,41.7,0,0,0,470.07,540.92Z" fill="#898989"/>
    </g>
    <g id="Grupo_144" data-name="Grupo 144">
      <path id="Caminho_165" data-name="Caminho 165" d="M466.74,548.94a34.886,34.886,0,0,0-.92,4.39,53.5,53.5,0,0,0,3.65-5.6A17.878,17.878,0,0,0,466.74,548.94Z" fill="#898989"/>
    </g>
    <g id="Grupo_145" data-name="Grupo 145">
      <path id="Caminho_166" data-name="Caminho 166" d="M463.13,545.89c.26.12,6.35,1.69,6.35,1.83a17.652,17.652,0,0,1-2.73,1.32A36.323,36.323,0,0,1,463.13,545.89Z" fill="#898989"/>
    </g>
    <g id="Grupo_146" data-name="Grupo 146">
      <path id="Caminho_167" data-name="Caminho 167" d="M469.78,548.13a32.56,32.56,0,0,1-.04,3.47,26.258,26.258,0,0,1-3.82,2.13C466.02,553.5,469.75,547.98,469.78,548.13Z" fill="#898989"/>
    </g>
    <g id="Grupo_147" data-name="Grupo 147">
      <path id="Caminho_168" data-name="Caminho 168" d="M470.07,548.23c.4.35,4.14,5.55,4.14,5.7a38.1,38.1,0,0,1-3.76-2.23A32.027,32.027,0,0,1,470.07,548.23Z" fill="#898989"/>
    </g>
    <g id="Grupo_148" data-name="Grupo 148">
      <path id="Caminho_169" data-name="Caminho 169" d="M472.21,545.4a16.56,16.56,0,0,0-1.82,1.88c.18,0,5.79-1.42,5.67-1.5A23.687,23.687,0,0,0,472.21,545.4Z" fill="#898989"/>
    </g>
    <g id="Grupo_149" data-name="Grupo 149">
      <path id="Caminho_170" data-name="Caminho 170" d="M463.65,545.8c.46,0,3.99-.46,3.99-.46l1.91,2.11S466.7,546.64,463.65,545.8Z" fill="#898989"/>
    </g>
    <g id="Grupo_150" data-name="Grupo 150">
      <path id="Caminho_171" data-name="Caminho 171" d="M467.95,545.14a24.118,24.118,0,0,0,1.77,1.89c.07-.05.15-5.94.1-6.02S469.01,543.17,467.95,545.14Z" fill="#898989"/>
    </g>
    <g id="Grupo_151" data-name="Grupo 151">
      <path id="Caminho_172" data-name="Caminho 172" d="M468.6,545.89c-.32-.36-.6-.68-.66-.74.05-.08.09-.17.13-.25l1.74-1.46c-.01.51-.01,1.05-.02,1.55C469.55,545.17,469.02,545.57,468.6,545.89Zm1.17.15-.57.5c.13.14.26.27.35.36l.2-.16C469.75,546.56,469.76,546.32,469.77,546.04Z" fill="#898989"/>
    </g>
    <g id="Grupo_152" data-name="Grupo 152">
      <path id="Caminho_173" data-name="Caminho 173" d="M471.86,550.57l-1.06,1.38c-.17-.11-.29-.19-.34-.23.34-.42.84-1.03,1.18-1.45C471.71,550.37,471.79,550.47,471.86,550.57Zm1.7,2.38q-.165-.24-.36-.51l-.47.7c.22.13.43.25.62.36C473.43,553.29,473.5,553.08,473.56,552.95Zm-3.35-2.98c.05.42.1.85.14,1.17.34-.38.78-.86,1.07-1.17-.19-.26-.37-.5-.53-.72Z" fill="#898989"/>
    </g>
    <g id="Grupo_153" data-name="Grupo 153">
      <path id="Caminho_174" data-name="Caminho 174" d="M471.14,546.42c-.03.05-.39.57-.31.57s.01,0,5.18-1.19a36.349,36.349,0,0,1-5.62,1.47C470.19,547.29,471.14,546.42,471.14,546.42Z" fill="#898989"/>
    </g>
    <g id="Grupo_154" data-name="Grupo 154">
      <path id="Caminho_175" data-name="Caminho 175" d="M463.65,545.8c.51.08,5.12,1.22,5.24,1.22s.17-.09.01-.31c.71.66.65.74.65.74C469.39,547.5,463.65,545.8,463.65,545.8Z" fill="#898989"/>
    </g>
    <g id="Grupo_155" data-name="Grupo 155">
      <path id="Caminho_176" data-name="Caminho 176" d="M470.14,549.15c0-.16-.05-.87.03-.74s3.64,4.92,3.64,4.92a31.125,31.125,0,0,0-3.79-5.35A5.544,5.544,0,0,0,470.14,549.15Z" fill="#898989"/>
    </g>
  </g>
</svg>
