<svg id="Componente_1_1" data-name="Componente 1 – 1" xmlns="http://www.w3.org/2000/svg" width="37.5" height="51.237" viewBox="0 0 37.5 51.237">
  <g id="Grupo_1843" data-name="Grupo 1843" transform="translate(-939.486 -594.11)">
    <path id="Caminho_2105" data-name="Caminho 2105" d="M969.85,594.11l-5.54,13.57h-11.5l5.11-13.57Z" fill="#7f0410"/>
  </g>
  <g id="Grupo_1844" data-name="Grupo 1844" transform="translate(-939.486 -594.11)">
    <path id="Caminho_2106" data-name="Caminho 2106" d="M964.84,605.33H952.38a1.477,1.477,0,0,0-1.48,1.48v7.93h15.42v-7.93A1.477,1.477,0,0,0,964.84,605.33Zm.38,2.91H951.71v-.61a1.186,1.186,0,0,1,1.19-1.19h11.12a1.186,1.186,0,0,1,1.19,1.19v.61Z" fill="#6b7384"/>
  </g>
  <g id="Grupo_1845" data-name="Grupo 1845" transform="translate(-939.486 -594.11)">
    <path id="Caminho_2107" data-name="Caminho 2107" d="M947.45,594.11l5.36,13.57h11.5l-5.23-13.57Z" fill="#b30617"/>
  </g>
  <g id="Grupo_1850" data-name="Grupo 1850" transform="translate(-939.486 -594.11)">
    <g id="Grupo_1846" data-name="Grupo 1846">
      <path id="Caminho_2108" data-name="Caminho 2108" d="M954.93,607.68l-5.47-13.57h-.88l5.47,13.57Z" fill="#ffc12c"/>
    </g>
    <g id="Grupo_1847" data-name="Grupo 1847">
      <path id="Caminho_2109" data-name="Caminho 2109" d="M957.61,607.68l-5.47-13.57h-.87l5.46,13.57Z" fill="#ffc12c"/>
    </g>
    <g id="Grupo_1848" data-name="Grupo 1848">
      <path id="Caminho_2110" data-name="Caminho 2110" d="M960.19,607.68l-5.46-13.57h-.88l5.46,13.57Z" fill="#ffc12c"/>
    </g>
    <g id="Grupo_1849" data-name="Grupo 1849">
      <path id="Caminho_2111" data-name="Caminho 2111" d="M962.97,607.68l-5.47-13.57h-.87l5.46,13.57Z" fill="#ffc12c"/>
    </g>
  </g>
  <g id="Grupo_1851" data-name="Grupo 1851" transform="translate(-939.486 -594.11)">
    <circle id="Elipse_40" data-name="Elipse 40" cx="16.72" cy="16.72" r="16.72" transform="translate(939.486 641.003) rotate(-82.536)" fill="#798093"/>
  </g>
  <g id="Grupo_1852" data-name="Grupo 1852" transform="translate(-939.486 -594.11)">
    <path id="Caminho_2112" data-name="Caminho 2112" d="M958.28,609.88c-.17,0-.33,0-.5.01a16.717,16.717,0,0,1,0,33.42c.16,0,.33.01.5.01a16.72,16.72,0,0,0,0-33.44Z" fill="#6b7384"/>
  </g>
  <g id="Grupo_1853" data-name="Grupo 1853" transform="translate(-939.486 -594.11)">
    <circle id="Elipse_41" data-name="Elipse 41" cx="13.63" cy="13.63" r="13.63" transform="translate(942.951 638.341) rotate(-82.536)" fill="#9ea8ba"/>
  </g>
  <g id="Grupo_1909" data-name="Grupo 1909" transform="translate(-939.486 -594.11)">
    <g id="Grupo_1856" data-name="Grupo 1856">
      <g id="Grupo_1854" data-name="Grupo 1854">
        <path id="Caminho_2113" data-name="Caminho 2113" d="M956.62,636.07a.7.7,0,1,1-1.25-.4A2.171,2.171,0,0,1,956.62,636.07Z" fill="#bac6d8"/>
      </g>
      <g id="Grupo_1855" data-name="Grupo 1855">
        <path id="Caminho_2114" data-name="Caminho 2114" d="M955.97,637.16a.7.7,0,1,1-1.01.84A2.142,2.142,0,0,1,955.97,637.16Z" fill="#bac6d8"/>
      </g>
    </g>
    <g id="Grupo_1865" data-name="Grupo 1865">
      <g id="Grupo_1857" data-name="Grupo 1857">
        <path id="Caminho_2115" data-name="Caminho 2115" d="M954.54,635.51a2.1,2.1,0,0,1,.51,1.2,2.17,2.17,0,0,1-1.19-.57,2.1,2.1,0,0,1-.51-1.2A2.17,2.17,0,0,1,954.54,635.51Z" fill="#bac6d8"/>
      </g>
      <g id="Grupo_1858" data-name="Grupo 1858">
        <path id="Caminho_2116" data-name="Caminho 2116" d="M953.75,636.5a2.224,2.224,0,0,1,1.3.2,2.137,2.137,0,0,1-1.12.69,2.224,2.224,0,0,1-1.3-.2A2.137,2.137,0,0,1,953.75,636.5Z" fill="#bac6d8"/>
      </g>
      <g id="Grupo_1859" data-name="Grupo 1859">
        <path id="Caminho_2117" data-name="Caminho 2117" d="M952.9,634.7a.7.7,0,1,1-1.08-.75A2.112,2.112,0,0,1,952.9,634.7Z" fill="#bac6d8"/>
      </g>
      <g id="Grupo_1860" data-name="Grupo 1860">
        <path id="Caminho_2118" data-name="Caminho 2118" d="M951.96,635.55a2.141,2.141,0,0,1,1.25.41,2.165,2.165,0,0,1-1.21.51,2.141,2.141,0,0,1-1.25-.41A2.165,2.165,0,0,1,951.96,635.55Z" fill="#bac6d8"/>
      </g>
      <g id="Grupo_1861" data-name="Grupo 1861">
        <path id="Caminho_2119" data-name="Caminho 2119" d="M951.37,633.46a2.058,2.058,0,0,1-.01,1.3,2.092,2.092,0,0,1-.86-.98,2.058,2.058,0,0,1,.01-1.3A2.148,2.148,0,0,1,951.37,633.46Z" fill="#bac6d8"/>
      </g>
      <g id="Grupo_1862" data-name="Grupo 1862">
        <path id="Caminho_2120" data-name="Caminho 2120" d="M950.25,634.07a2.206,2.206,0,0,1,1.12.69,2.16,2.16,0,0,1-1.3.2,2.206,2.206,0,0,1-1.12-.69A2.138,2.138,0,0,1,950.25,634.07Z" fill="#bac6d8"/>
      </g>
      <g id="Grupo_1863" data-name="Grupo 1863">
        <path id="Caminho_2121" data-name="Caminho 2121" d="M950.21,632.03a2.076,2.076,0,0,1-.32,1.26,2.122,2.122,0,0,1-.61-1.15,2.076,2.076,0,0,1,.32-1.26A2.122,2.122,0,0,1,950.21,632.03Z" fill="#bac6d8"/>
      </g>
      <g id="Grupo_1864" data-name="Grupo 1864">
        <path id="Caminho_2122" data-name="Caminho 2122" d="M948.98,632.36a2.14,2.14,0,0,1,.92.93,2.241,2.241,0,0,1-1.32-.1,2.14,2.14,0,0,1-.92-.93A2.241,2.241,0,0,1,948.98,632.36Z" fill="#bac6d8"/>
      </g>
    </g>
    <g id="Grupo_1874" data-name="Grupo 1874">
      <g id="Grupo_1866" data-name="Grupo 1866">
        <path id="Caminho_2123" data-name="Caminho 2123" d="M949.23,630.23a2.106,2.106,0,0,1-.57,1.17,2.076,2.076,0,0,1-.36-1.25,2.106,2.106,0,0,1,.57-1.17A2.154,2.154,0,0,1,949.23,630.23Z" fill="#bac6d8"/>
      </g>
      <g id="Grupo_1867" data-name="Grupo 1867">
        <path id="Caminho_2124" data-name="Caminho 2124" d="M947.95,630.31a2.073,2.073,0,0,1,.71,1.09,2.205,2.205,0,0,1-1.27-.36,2.073,2.073,0,0,1-.71-1.09A2.2,2.2,0,0,1,947.95,630.31Z" fill="#bac6d8"/>
      </g>
      <g id="Grupo_1868" data-name="Grupo 1868">
        <path id="Caminho_2125" data-name="Caminho 2125" d="M948.72,628.52a2.108,2.108,0,0,1-.75,1.07,2.063,2.063,0,0,1-.15-1.29,2.108,2.108,0,0,1,.75-1.07A2.144,2.144,0,0,1,948.72,628.52Z" fill="#bac6d8"/>
      </g>
      <g id="Grupo_1869" data-name="Grupo 1869">
        <path id="Caminho_2126" data-name="Caminho 2126" d="M947.44,628.4a2.076,2.076,0,0,1,.53,1.19,2.149,2.149,0,0,1-1.19-.55,2.076,2.076,0,0,1-.53-1.19A2.149,2.149,0,0,1,947.44,628.4Z" fill="#bac6d8"/>
      </g>
      <g id="Grupo_1870" data-name="Grupo 1870">
        <path id="Caminho_2127" data-name="Caminho 2127" d="M948.66,626.61a2.176,2.176,0,0,1-.99.86,2.1,2.1,0,0,1,.17-1.29,2.176,2.176,0,0,1,.99-.86A2.1,2.1,0,0,1,948.66,626.61Z" fill="#bac6d8"/>
      </g>
      <g id="Grupo_1871" data-name="Grupo 1871">
        <path id="Caminho_2128" data-name="Caminho 2128" d="M947.46,626.19a.7.7,0,1,1-1.02-.82A2.184,2.184,0,0,1,947.46,626.19Z" fill="#bac6d8"/>
      </g>
      <g id="Grupo_1872" data-name="Grupo 1872">
        <path id="Caminho_2129" data-name="Caminho 2129" d="M949,624.68a2.206,2.206,0,0,1-1.17.61,2.1,2.1,0,0,1,.47-1.21,2.206,2.206,0,0,1,1.17-.61A2.044,2.044,0,0,1,949,624.68Z" fill="#bac6d8"/>
      </g>
      <g id="Grupo_1873" data-name="Grupo 1873">
        <path id="Caminho_2130" data-name="Caminho 2130" d="M947.93,623.99a.7.7,0,1,1-.8-1.04A2.164,2.164,0,0,1,947.93,623.99Z" fill="#bac6d8"/>
      </g>
    </g>
    <g id="Grupo_1875" data-name="Grupo 1875">
      <path id="Caminho_2131" data-name="Caminho 2131" d="M949.7,623.09a2.184,2.184,0,0,1-1.28.33,2.108,2.108,0,0,1,.74-1.08,2.184,2.184,0,0,1,1.28-.33A2.108,2.108,0,0,1,949.7,623.09Z" fill="#bac6d8"/>
    </g>
    <g id="Grupo_1876" data-name="Grupo 1876">
      <path id="Caminho_2132" data-name="Caminho 2132" d="M948.82,622.18a.7.7,0,1,1-.54-1.19A2.1,2.1,0,0,1,948.82,622.18Z" fill="#bac6d8"/>
    </g>
    <g id="Grupo_1877" data-name="Grupo 1877">
      <path id="Caminho_2133" data-name="Caminho 2133" d="M950.58,621.66a.7.7,0,1,1,.9-.95A2.163,2.163,0,0,1,950.58,621.66Z" fill="#bac6d8"/>
    </g>
    <g id="Grupo_1878" data-name="Grupo 1878">
      <path id="Caminho_2134" data-name="Caminho 2134" d="M949.85,620.62a.7.7,0,1,1-.34-1.26A2.109,2.109,0,0,1,949.85,620.62Z" fill="#bac6d8"/>
    </g>
    <g id="Grupo_1881" data-name="Grupo 1881">
      <g id="Grupo_1879" data-name="Grupo 1879">
        <path id="Caminho_2135" data-name="Caminho 2135" d="M960.32,635.98a.7.7,0,1,0,1.25-.4A2.171,2.171,0,0,0,960.32,635.98Z" fill="#bac6d8"/>
      </g>
      <g id="Grupo_1880" data-name="Grupo 1880">
        <path id="Caminho_2136" data-name="Caminho 2136" d="M960.96,637.07a.7.7,0,1,0,1.01.84A2.082,2.082,0,0,0,960.96,637.07Z" fill="#bac6d8"/>
      </g>
    </g>
    <g id="Grupo_1890" data-name="Grupo 1890">
      <g id="Grupo_1882" data-name="Grupo 1882">
        <path id="Caminho_2137" data-name="Caminho 2137" d="M962.14,635.51a2.1,2.1,0,0,0-.51,1.2,2.17,2.17,0,0,0,1.19-.57,2.1,2.1,0,0,0,.51-1.2A2.142,2.142,0,0,0,962.14,635.51Z" fill="#bac6d8"/>
      </g>
      <g id="Grupo_1883" data-name="Grupo 1883">
        <path id="Caminho_2138" data-name="Caminho 2138" d="M962.93,636.5a2.224,2.224,0,0,0-1.3.2,2.137,2.137,0,0,0,1.12.69,2.224,2.224,0,0,0,1.3-.2A2.19,2.19,0,0,0,962.93,636.5Z" fill="#bac6d8"/>
      </g>
      <g id="Grupo_1884" data-name="Grupo 1884">
        <path id="Caminho_2139" data-name="Caminho 2139" d="M963.77,634.63a.7.7,0,1,0,1.08-.75A2.112,2.112,0,0,0,963.77,634.63Z" fill="#bac6d8"/>
      </g>
      <g id="Grupo_1885" data-name="Grupo 1885">
        <path id="Caminho_2140" data-name="Caminho 2140" d="M964.71,635.48a2.141,2.141,0,0,0-1.25.41,2.165,2.165,0,0,0,1.21.51,2.141,2.141,0,0,0,1.25-.41A2.165,2.165,0,0,0,964.71,635.48Z" fill="#bac6d8"/>
      </g>
      <g id="Grupo_1886" data-name="Grupo 1886">
        <path id="Caminho_2141" data-name="Caminho 2141" d="M965.25,633.43a2.058,2.058,0,0,0,.01,1.3,2.092,2.092,0,0,0,.86-.98,2.141,2.141,0,0,0-.01-1.3A2.092,2.092,0,0,0,965.25,633.43Z" fill="#bac6d8"/>
      </g>
      <g id="Grupo_1887" data-name="Grupo 1887">
        <path id="Caminho_2142" data-name="Caminho 2142" d="M966.37,634.03a2.206,2.206,0,0,0-1.12.69,2.16,2.16,0,0,0,1.3.2.7.7,0,1,0-.18-.89Z" fill="#bac6d8"/>
      </g>
      <g id="Grupo_1888" data-name="Grupo 1888">
        <path id="Caminho_2143" data-name="Caminho 2143" d="M966.47,631.9a2.076,2.076,0,0,0,.32,1.26,2.122,2.122,0,0,0,.61-1.15.7.7,0,1,0-.93-.11Z" fill="#bac6d8"/>
      </g>
      <g id="Grupo_1889" data-name="Grupo 1889">
        <path id="Caminho_2144" data-name="Caminho 2144" d="M967.7,632.23a2.14,2.14,0,0,0-.92.93,2.241,2.241,0,0,0,1.32-.1,2.14,2.14,0,0,0,.92-.93A2.241,2.241,0,0,0,967.7,632.23Z" fill="#bac6d8"/>
      </g>
    </g>
    <g id="Grupo_1899" data-name="Grupo 1899">
      <g id="Grupo_1891" data-name="Grupo 1891">
        <path id="Caminho_2145" data-name="Caminho 2145" d="M967.34,630.2a2.106,2.106,0,0,0,.57,1.17,2.076,2.076,0,0,0,.36-1.25,2.106,2.106,0,0,0-.57-1.17A2.076,2.076,0,0,0,967.34,630.2Z" fill="#bac6d8"/>
      </g>
      <g id="Grupo_1892" data-name="Grupo 1892">
        <path id="Caminho_2146" data-name="Caminho 2146" d="M968.62,630.28a2.073,2.073,0,0,0-.71,1.09,2.205,2.205,0,0,0,1.27-.36,2.073,2.073,0,0,0,.71-1.09A2.2,2.2,0,0,0,968.62,630.28Z" fill="#bac6d8"/>
      </g>
      <g id="Grupo_1893" data-name="Grupo 1893">
        <path id="Caminho_2147" data-name="Caminho 2147" d="M967.85,628.48a2.108,2.108,0,0,0,.75,1.07,2.063,2.063,0,0,0,.15-1.29,2.108,2.108,0,0,0-.75-1.07A2.144,2.144,0,0,0,967.85,628.48Z" fill="#bac6d8"/>
      </g>
      <g id="Grupo_1894" data-name="Grupo 1894">
        <path id="Caminho_2148" data-name="Caminho 2148" d="M969.13,628.36a2.076,2.076,0,0,0-.53,1.19,2.149,2.149,0,0,0,1.19-.55,2.076,2.076,0,0,0,.53-1.19A2.149,2.149,0,0,0,969.13,628.36Z" fill="#bac6d8"/>
      </g>
      <g id="Grupo_1895" data-name="Grupo 1895">
        <path id="Caminho_2149" data-name="Caminho 2149" d="M967.9,626.63a2.176,2.176,0,0,0,.99.86,2.1,2.1,0,0,0-.17-1.29,2.176,2.176,0,0,0-.99-.86A2.1,2.1,0,0,0,967.9,626.63Z" fill="#bac6d8"/>
      </g>
      <g id="Grupo_1896" data-name="Grupo 1896">
        <path id="Caminho_2150" data-name="Caminho 2150" d="M969.1,626.21a.7.7,0,1,0,1.02-.82A2.184,2.184,0,0,0,969.1,626.21Z" fill="#bac6d8"/>
      </g>
      <g id="Grupo_1897" data-name="Grupo 1897">
        <path id="Caminho_2151" data-name="Caminho 2151" d="M967.54,624.7a2.206,2.206,0,0,0,1.17.61,2.1,2.1,0,0,0-.47-1.21,2.206,2.206,0,0,0-1.17-.61A2.1,2.1,0,0,0,967.54,624.7Z" fill="#bac6d8"/>
      </g>
      <g id="Grupo_1898" data-name="Grupo 1898">
        <path id="Caminho_2152" data-name="Caminho 2152" d="M968.61,624.02a.7.7,0,1,0,.8-1.03A2.1,2.1,0,0,0,968.61,624.02Z" fill="#bac6d8"/>
      </g>
    </g>
    <g id="Grupo_1900" data-name="Grupo 1900">
      <path id="Caminho_2153" data-name="Caminho 2153" d="M966.86,623.14a2.184,2.184,0,0,0,1.28.33,2.108,2.108,0,0,0-.74-1.08,2.184,2.184,0,0,0-1.28-.33A2.07,2.07,0,0,0,966.86,623.14Z" fill="#bac6d8"/>
    </g>
    <g id="Grupo_1901" data-name="Grupo 1901">
      <path id="Caminho_2154" data-name="Caminho 2154" d="M967.75,622.23a.7.7,0,1,0,.54-1.19A2.1,2.1,0,0,0,967.75,622.23Z" fill="#bac6d8"/>
    </g>
    <g id="Grupo_1902" data-name="Grupo 1902">
      <path id="Caminho_2155" data-name="Caminho 2155" d="M965.94,621.72a.7.7,0,1,0-.9-.95A2.082,2.082,0,0,0,965.94,621.72Z" fill="#bac6d8"/>
    </g>
    <g id="Grupo_1903" data-name="Grupo 1903">
      <path id="Caminho_2156" data-name="Caminho 2156" d="M966.67,620.68a.7.7,0,1,0,.34-1.26A2.109,2.109,0,0,0,966.67,620.68Z" fill="#bac6d8"/>
    </g>
    <g id="Grupo_1904" data-name="Grupo 1904">
      <path id="Caminho_2157" data-name="Caminho 2157" d="M965.44,619.67a.906.906,0,0,1-.1.09c-.01.01-.02.01-.03.02a9.693,9.693,0,0,1,3.49,7.39c0,5.48-4.72,9.95-10.53,9.95s-10.53-4.46-10.53-9.95a9.65,9.65,0,0,1,3.21-7.14,1.219,1.219,0,0,1-.17-.07,9.8,9.8,0,0,0-3.21,7.21c0,5.57,4.8,10.11,10.7,10.11s10.7-4.53,10.7-10.11A9.843,9.843,0,0,0,965.44,619.67Z" fill="#bac6d8"/>
    </g>
    <g id="Grupo_1905" data-name="Grupo 1905">
      <path id="Caminho_2158" data-name="Caminho 2158" d="M951.99,620.39a2.215,2.215,0,0,1-1.31-.19,2.138,2.138,0,0,1,1.11-.7,2.215,2.215,0,0,1,1.31.19A2.138,2.138,0,0,1,951.99,620.39Z" fill="#bac6d8"/>
    </g>
    <g id="Grupo_1906" data-name="Grupo 1906">
      <path id="Caminho_2159" data-name="Caminho 2159" d="M951.54,619.21a2.15,2.15,0,0,1-.85.99,2.1,2.1,0,0,1-.02-1.3,2.15,2.15,0,0,1,.85-.99A2.1,2.1,0,0,1,951.54,619.21Z" fill="#bac6d8"/>
    </g>
    <g id="Grupo_1907" data-name="Grupo 1907">
      <path id="Caminho_2160" data-name="Caminho 2160" d="M964.59,620.39a2.215,2.215,0,0,0,1.31-.19,2.138,2.138,0,0,0-1.11-.7,2.215,2.215,0,0,0-1.31.19A2.192,2.192,0,0,0,964.59,620.39Z" fill="#bac6d8"/>
    </g>
    <g id="Grupo_1908" data-name="Grupo 1908">
      <path id="Caminho_2161" data-name="Caminho 2161" d="M965.04,619.21a2.15,2.15,0,0,0,.85.99,2.1,2.1,0,0,0,.02-1.3,2.15,2.15,0,0,0-.85-.99A2.1,2.1,0,0,0,965.04,619.21Z" fill="#bac6d8"/>
    </g>
  </g>
  <g id="Grupo_1910" data-name="Grupo 1910" transform="translate(-939.486 -594.11)">
    <path id="Caminho_2162" data-name="Caminho 2162" d="M958.46,633.7c2.98,0,2.9-1.2,2.9-1.53a4.535,4.535,0,0,0,0-.74.9.9,0,0,1-.04-.25s.04-6.5.04-6.7.04-.41.08-1.57a2.477,2.477,0,0,0-1.16-2.03,2.264,2.264,0,0,1-.41-1.45,6.53,6.53,0,0,0-.12-1.37c-.04-.29-.21-1.66-.21-1.82.17,0,.12-.08.12-.25a1.9,1.9,0,0,0-.17-.66c-.05-.04,0-.25,0-.25h.08c.08,0,0-.17-.08-.29a6,6,0,0,0-2.07,0c-.08.12-.17.29-.08.29h.08s.04.21,0,.25a2.238,2.238,0,0,0-.17.66c0,.17-.04.25.12.25,0,.17-.17,1.53-.21,1.82a6.469,6.469,0,0,0-.12,1.37,2.306,2.306,0,0,1-.41,1.45,2.477,2.477,0,0,0-1.16,2.03c.04,1.16.08,1.37.08,1.57s.04,6.7.04,6.7a.953.953,0,0,1-.04.25,4.543,4.543,0,0,0,0,.74C955.57,632.5,955.48,633.7,958.46,633.7Z" fill="#bac6d8"/>
  </g>
</svg>
