<svg id="Componente_3_1" data-name="Componente 3 – 1" xmlns="http://www.w3.org/2000/svg" width="44.863" height="54.929" viewBox="0 0 44.863 54.929">
  <g id="Grupo_1981" data-name="Grupo 1981" transform="translate(-1031.503 -594.11)">
    <path id="Caminho_2221" data-name="Caminho 2221" d="M1065.53,594.11l-5.54,13.57h-11.5l5.11-13.57Z" fill="#7f0410"/>
  </g>
  <g id="Grupo_1982" data-name="Grupo 1982" transform="translate(-1031.503 -594.11)">
    <path id="Caminho_2222" data-name="Caminho 2222" d="M1060.52,605.33h-12.46a1.477,1.477,0,0,0-1.48,1.48v7.93H1062v-7.93A1.477,1.477,0,0,0,1060.52,605.33Zm.39,2.91H1047.4v-.61a1.186,1.186,0,0,1,1.19-1.19h11.12a1.186,1.186,0,0,1,1.19,1.19v.61Z" fill="#f28f0e"/>
  </g>
  <g id="Grupo_1983" data-name="Grupo 1983" transform="translate(-1031.503 -594.11)">
    <path id="Caminho_2223" data-name="Caminho 2223" d="M1043.13,594.11l5.36,13.57h11.5l-5.23-13.57Z" fill="#b30617"/>
  </g>
  <g id="Grupo_1988" data-name="Grupo 1988" transform="translate(-1031.503 -594.11)">
    <g id="Grupo_1984" data-name="Grupo 1984">
      <path id="Caminho_2224" data-name="Caminho 2224" d="M1051.15,607.68l-5.88-13.57h-.66l5.88,13.57Z" fill="#ffc12c"/>
    </g>
    <g id="Grupo_1985" data-name="Grupo 1985">
      <path id="Caminho_2225" data-name="Caminho 2225" d="M1053.64,607.68l-5.88-13.57h-.66l5.88,13.57Z" fill="#ffc12c"/>
    </g>
    <g id="Grupo_1986" data-name="Grupo 1986">
      <path id="Caminho_2226" data-name="Caminho 2226" d="M1056.39,607.68l-5.87-13.57h-.67l5.88,13.57Z" fill="#ffc12c"/>
    </g>
    <g id="Grupo_1987" data-name="Grupo 1987">
      <path id="Caminho_2227" data-name="Caminho 2227" d="M1058.82,607.68l-5.87-13.57h-.67l5.88,13.57Z" fill="#ffc12c"/>
    </g>
  </g>
  <g id="Grupo_1989" data-name="Grupo 1989" transform="translate(-1031.503 -594.11)">
    <circle id="Elipse_44" data-name="Elipse 44" cx="16.72" cy="16.72" r="16.72" transform="translate(1031.503 634.085) rotate(-63.435)" fill="#ffb10f"/>
  </g>
  <g id="Grupo_1990" data-name="Grupo 1990" transform="translate(-1031.503 -594.11)">
    <path id="Caminho_2228" data-name="Caminho 2228" d="M1067.41,616.65a16.721,16.721,0,0,1-27.5,19,16.721,16.721,0,1,0,27.5-19Z" fill="#ff930f"/>
  </g>
  <g id="Grupo_1991" data-name="Grupo 1991" transform="translate(-1031.503 -594.11)">
    <circle id="Elipse_45" data-name="Elipse 45" cx="13.63" cy="13.63" r="13.63" transform="translate(1035.648 632.703) rotate(-63.435)" fill="#ffdc01"/>
  </g>
  <g id="Grupo_2047" data-name="Grupo 2047" transform="translate(-1031.503 -594.11)">
    <g id="Grupo_1994" data-name="Grupo 1994">
      <g id="Grupo_1992" data-name="Grupo 1992">
        <path id="Caminho_2229" data-name="Caminho 2229" d="M1052.3,635.87a2.118,2.118,0,0,1,.67,1.12,1.873,1.873,0,0,1-1.93-1.52A2.174,2.174,0,0,1,1052.3,635.87Z" fill="#fff375"/>
      </g>
      <g id="Grupo_1993" data-name="Grupo 1993">
        <path id="Caminho_2230" data-name="Caminho 2230" d="M1051.66,636.96a.7.7,0,1,1-1.01.84A2.082,2.082,0,0,1,1051.66,636.96Z" fill="#fff375"/>
      </g>
    </g>
    <g id="Grupo_2003" data-name="Grupo 2003">
      <g id="Grupo_1995" data-name="Grupo 1995">
        <path id="Caminho_2231" data-name="Caminho 2231" d="M1050.22,635.3a2.1,2.1,0,0,1,.51,1.2,2.17,2.17,0,0,1-1.19-.57,2.1,2.1,0,0,1-.51-1.2A2.255,2.255,0,0,1,1050.22,635.3Z" fill="#fff375"/>
      </g>
      <g id="Grupo_1996" data-name="Grupo 1996">
        <path id="Caminho_2232" data-name="Caminho 2232" d="M1049.43,636.3a2.224,2.224,0,0,1,1.3.2,2.137,2.137,0,0,1-1.12.69,2.224,2.224,0,0,1-1.3-.2A2.137,2.137,0,0,1,1049.43,636.3Z" fill="#fff375"/>
      </g>
      <g id="Grupo_1997" data-name="Grupo 1997">
        <path id="Caminho_2233" data-name="Caminho 2233" d="M1048.58,634.49a.7.7,0,1,1-1.08-.75A2.2,2.2,0,0,1,1048.58,634.49Z" fill="#fff375"/>
      </g>
      <g id="Grupo_1998" data-name="Grupo 1998">
        <path id="Caminho_2234" data-name="Caminho 2234" d="M1047.64,635.35a2.141,2.141,0,0,1,1.25.41,2.165,2.165,0,0,1-1.21.51,2.141,2.141,0,0,1-1.25-.41A2.165,2.165,0,0,1,1047.64,635.35Z" fill="#fff375"/>
      </g>
      <g id="Grupo_1999" data-name="Grupo 1999">
        <path id="Caminho_2235" data-name="Caminho 2235" d="M1047.05,633.26a2.058,2.058,0,0,1-.01,1.3,2.092,2.092,0,0,1-.86-.98,2.058,2.058,0,0,1,.01-1.3A2.092,2.092,0,0,1,1047.05,633.26Z" fill="#fff375"/>
      </g>
      <g id="Grupo_2000" data-name="Grupo 2000">
        <path id="Caminho_2236" data-name="Caminho 2236" d="M1045.93,633.87a2.206,2.206,0,0,1,1.12.69,2.161,2.161,0,0,1-1.3.2,2.206,2.206,0,0,1-1.12-.69A2.138,2.138,0,0,1,1045.93,633.87Z" fill="#fff375"/>
      </g>
      <g id="Grupo_2001" data-name="Grupo 2001">
        <path id="Caminho_2237" data-name="Caminho 2237" d="M1045.9,631.83a.7.7,0,1,1-.6-1.15A2.076,2.076,0,0,1,1045.9,631.83Z" fill="#fff375"/>
      </g>
      <g id="Grupo_2002" data-name="Grupo 2002">
        <path id="Caminho_2238" data-name="Caminho 2238" d="M1044.66,632.16a2.14,2.14,0,0,1,.92.93,2.24,2.24,0,0,1-1.32-.1.7.7,0,1,1,.4-.83Z" fill="#fff375"/>
      </g>
    </g>
    <g id="Grupo_2012" data-name="Grupo 2012">
      <g id="Grupo_2004" data-name="Grupo 2004">
        <path id="Caminho_2239" data-name="Caminho 2239" d="M1044.91,630.03a2.107,2.107,0,0,1-.57,1.17,2.076,2.076,0,0,1-.36-1.25,2.107,2.107,0,0,1,.57-1.17A2.076,2.076,0,0,1,1044.91,630.03Z" fill="#fff375"/>
      </g>
      <g id="Grupo_2005" data-name="Grupo 2005">
        <path id="Caminho_2240" data-name="Caminho 2240" d="M1043.63,630.11a2.072,2.072,0,0,1,.71,1.09,2.205,2.205,0,0,1-1.27-.36,2.072,2.072,0,0,1-.71-1.09A2.205,2.205,0,0,1,1043.63,630.11Z" fill="#fff375"/>
      </g>
      <g id="Grupo_2006" data-name="Grupo 2006">
        <path id="Caminho_2241" data-name="Caminho 2241" d="M1044.4,628.32a2.108,2.108,0,0,1-.75,1.07,2.063,2.063,0,0,1-.15-1.29,2.108,2.108,0,0,1,.75-1.07A2.144,2.144,0,0,1,1044.4,628.32Z" fill="#fff375"/>
      </g>
      <g id="Grupo_2007" data-name="Grupo 2007">
        <path id="Caminho_2242" data-name="Caminho 2242" d="M1043.13,628.2a2.076,2.076,0,0,1,.53,1.19,2.149,2.149,0,0,1-1.19-.55,2.076,2.076,0,0,1-.53-1.19A2.176,2.176,0,0,1,1043.13,628.2Z" fill="#fff375"/>
      </g>
      <g id="Grupo_2008" data-name="Grupo 2008">
        <path id="Caminho_2243" data-name="Caminho 2243" d="M1044.35,626.41a2.176,2.176,0,0,1-.99.86,2.1,2.1,0,0,1,.17-1.29.7.7,0,1,1,.82.43Z" fill="#fff375"/>
      </g>
      <g id="Grupo_2009" data-name="Grupo 2009">
        <path id="Caminho_2244" data-name="Caminho 2244" d="M1043.14,625.99a.7.7,0,1,1-1.02-.82A2.118,2.118,0,0,1,1043.14,625.99Z" fill="#fff375"/>
      </g>
      <g id="Grupo_2010" data-name="Grupo 2010">
        <path id="Caminho_2245" data-name="Caminho 2245" d="M1044.69,624.48a2.206,2.206,0,0,1-1.17.61,2.1,2.1,0,0,1,.47-1.21,2.206,2.206,0,0,1,1.17-.61A2.124,2.124,0,0,1,1044.69,624.48Z" fill="#fff375"/>
      </g>
      <g id="Grupo_2011" data-name="Grupo 2011">
        <path id="Caminho_2246" data-name="Caminho 2246" d="M1043.61,623.79a.7.7,0,1,1-.8-1.04A2.091,2.091,0,0,1,1043.61,623.79Z" fill="#fff375"/>
      </g>
    </g>
    <g id="Grupo_2013" data-name="Grupo 2013">
      <path id="Caminho_2247" data-name="Caminho 2247" d="M1045.38,622.89a2.184,2.184,0,0,1-1.28.33,2.109,2.109,0,0,1,.74-1.08,2.184,2.184,0,0,1,1.28-.33A2.109,2.109,0,0,1,1045.38,622.89Z" fill="#fff375"/>
    </g>
    <g id="Grupo_2014" data-name="Grupo 2014">
      <path id="Caminho_2248" data-name="Caminho 2248" d="M1044.5,621.98a.7.7,0,1,1-.54-1.19A2.1,2.1,0,0,1,1044.5,621.98Z" fill="#fff375"/>
    </g>
    <g id="Grupo_2015" data-name="Grupo 2015">
      <path id="Caminho_2249" data-name="Caminho 2249" d="M1046.26,621.46a.7.7,0,1,1,.9-.95A2.163,2.163,0,0,1,1046.26,621.46Z" fill="#fff375"/>
    </g>
    <g id="Grupo_2016" data-name="Grupo 2016">
      <path id="Caminho_2250" data-name="Caminho 2250" d="M1045.53,620.42a.7.7,0,1,1-.33-1.26A2.108,2.108,0,0,1,1045.53,620.42Z" fill="#fff375"/>
    </g>
    <g id="Grupo_2019" data-name="Grupo 2019">
      <g id="Grupo_2017" data-name="Grupo 2017">
        <path id="Caminho_2251" data-name="Caminho 2251" d="M1056,635.78a.7.7,0,1,0,1.25-.4A2.171,2.171,0,0,0,1056,635.78Z" fill="#fff375"/>
      </g>
      <g id="Grupo_2018" data-name="Grupo 2018">
        <path id="Caminho_2252" data-name="Caminho 2252" d="M1056.65,636.87a.7.7,0,1,0,1.01.84A2.142,2.142,0,0,0,1056.65,636.87Z" fill="#fff375"/>
      </g>
    </g>
    <g id="Grupo_2028" data-name="Grupo 2028">
      <g id="Grupo_2020" data-name="Grupo 2020">
        <path id="Caminho_2253" data-name="Caminho 2253" d="M1057.82,635.3a2.1,2.1,0,0,0-.51,1.2,2.17,2.17,0,0,0,1.19-.57,2.1,2.1,0,0,0,.51-1.2A2.256,2.256,0,0,0,1057.82,635.3Z" fill="#fff375"/>
      </g>
      <g id="Grupo_2021" data-name="Grupo 2021">
        <path id="Caminho_2254" data-name="Caminho 2254" d="M1058.61,636.3a2.224,2.224,0,0,0-1.3.2,2.137,2.137,0,0,0,1.12.69,2.224,2.224,0,0,0,1.3-.2A2.137,2.137,0,0,0,1058.61,636.3Z" fill="#fff375"/>
      </g>
      <g id="Grupo_2022" data-name="Grupo 2022">
        <path id="Caminho_2255" data-name="Caminho 2255" d="M1059.45,634.43a.7.7,0,1,0,1.08-.75A2.161,2.161,0,0,0,1059.45,634.43Z" fill="#fff375"/>
      </g>
      <g id="Grupo_2023" data-name="Grupo 2023">
        <path id="Caminho_2256" data-name="Caminho 2256" d="M1060.39,635.28a2.141,2.141,0,0,0-1.25.41,2.165,2.165,0,0,0,1.21.51,2.141,2.141,0,0,0,1.25-.41A2.165,2.165,0,0,0,1060.39,635.28Z" fill="#fff375"/>
      </g>
      <g id="Grupo_2024" data-name="Grupo 2024">
        <path id="Caminho_2257" data-name="Caminho 2257" d="M1060.93,633.23a2.058,2.058,0,0,0,.01,1.3,2.092,2.092,0,0,0,.86-.98,2.058,2.058,0,0,0-.01-1.3A2.148,2.148,0,0,0,1060.93,633.23Z" fill="#fff375"/>
      </g>
      <g id="Grupo_2025" data-name="Grupo 2025">
        <path id="Caminho_2258" data-name="Caminho 2258" d="M1062.05,633.83a2.206,2.206,0,0,0-1.12.69,2.161,2.161,0,0,0,1.3.2.7.7,0,1,0-.18-.89Z" fill="#fff375"/>
      </g>
      <g id="Grupo_2026" data-name="Grupo 2026">
        <path id="Caminho_2259" data-name="Caminho 2259" d="M1062.15,631.7a2.076,2.076,0,0,0,.32,1.26,2.122,2.122,0,0,0,.61-1.15.7.7,0,1,0-.93-.11Z" fill="#fff375"/>
      </g>
      <g id="Grupo_2027" data-name="Grupo 2027">
        <path id="Caminho_2260" data-name="Caminho 2260" d="M1063.39,632.03a2.14,2.14,0,0,0-.92.93,2.24,2.24,0,0,0,1.32-.1.7.7,0,1,0-.4-.83Z" fill="#fff375"/>
      </g>
    </g>
    <g id="Grupo_2037" data-name="Grupo 2037">
      <g id="Grupo_2029" data-name="Grupo 2029">
        <path id="Caminho_2261" data-name="Caminho 2261" d="M1063.02,630a2.107,2.107,0,0,0,.57,1.17,2.076,2.076,0,0,0,.36-1.25,2.107,2.107,0,0,0-.57-1.17A2.154,2.154,0,0,0,1063.02,630Z" fill="#fff375"/>
      </g>
      <g id="Grupo_2030" data-name="Grupo 2030">
        <path id="Caminho_2262" data-name="Caminho 2262" d="M1064.3,630.08a2.072,2.072,0,0,0-.71,1.09,2.205,2.205,0,0,0,1.27-.36,2.072,2.072,0,0,0,.71-1.09A2.2,2.2,0,0,0,1064.3,630.08Z" fill="#fff375"/>
      </g>
      <g id="Grupo_2031" data-name="Grupo 2031">
        <path id="Caminho_2263" data-name="Caminho 2263" d="M1063.53,628.28a2.108,2.108,0,0,0,.75,1.07,2.063,2.063,0,0,0,.15-1.29,2.108,2.108,0,0,0-.75-1.07A2.144,2.144,0,0,0,1063.53,628.28Z" fill="#fff375"/>
      </g>
      <g id="Grupo_2032" data-name="Grupo 2032">
        <path id="Caminho_2264" data-name="Caminho 2264" d="M1064.81,628.16a2.076,2.076,0,0,0-.53,1.19,2.149,2.149,0,0,0,1.19-.55,2.076,2.076,0,0,0,.53-1.19A2.149,2.149,0,0,0,1064.81,628.16Z" fill="#fff375"/>
      </g>
      <g id="Grupo_2033" data-name="Grupo 2033">
        <path id="Caminho_2265" data-name="Caminho 2265" d="M1063.58,626.43a2.176,2.176,0,0,0,.99.86,2.1,2.1,0,0,0-.17-1.29,2.176,2.176,0,0,0-.99-.86A2.1,2.1,0,0,0,1063.58,626.43Z" fill="#fff375"/>
      </g>
      <g id="Grupo_2034" data-name="Grupo 2034">
        <path id="Caminho_2266" data-name="Caminho 2266" d="M1064.79,626.01a.7.7,0,1,0,1.02-.82A2.118,2.118,0,0,0,1064.79,626.01Z" fill="#fff375"/>
      </g>
      <g id="Grupo_2035" data-name="Grupo 2035">
        <path id="Caminho_2267" data-name="Caminho 2267" d="M1063.22,624.5a2.206,2.206,0,0,0,1.17.61,2.1,2.1,0,0,0-.47-1.21,2.206,2.206,0,0,0-1.17-.61A2.1,2.1,0,0,0,1063.22,624.5Z" fill="#fff375"/>
      </g>
      <g id="Grupo_2036" data-name="Grupo 2036">
        <path id="Caminho_2268" data-name="Caminho 2268" d="M1064.3,623.81a.7.7,0,1,0,.8-1.04A2.165,2.165,0,0,0,1064.3,623.81Z" fill="#fff375"/>
      </g>
    </g>
    <g id="Grupo_2038" data-name="Grupo 2038">
      <path id="Caminho_2269" data-name="Caminho 2269" d="M1062.54,622.94a2.184,2.184,0,0,0,1.28.33,2.109,2.109,0,0,0-.74-1.08,2.184,2.184,0,0,0-1.28-.33A2.143,2.143,0,0,0,1062.54,622.94Z" fill="#fff375"/>
    </g>
    <g id="Grupo_2039" data-name="Grupo 2039">
      <path id="Caminho_2270" data-name="Caminho 2270" d="M1063.43,622.03a.7.7,0,1,0,.54-1.19A2.1,2.1,0,0,0,1063.43,622.03Z" fill="#fff375"/>
    </g>
    <g id="Grupo_2040" data-name="Grupo 2040">
      <path id="Caminho_2271" data-name="Caminho 2271" d="M1061.62,621.52a.7.7,0,1,0-.9-.95A2.163,2.163,0,0,0,1061.62,621.52Z" fill="#fff375"/>
    </g>
    <g id="Grupo_2041" data-name="Grupo 2041">
      <path id="Caminho_2272" data-name="Caminho 2272" d="M1062.35,620.48a.7.7,0,1,0,.34-1.26A2.108,2.108,0,0,0,1062.35,620.48Z" fill="#fff375"/>
    </g>
    <g id="Grupo_2042" data-name="Grupo 2042">
      <path id="Caminho_2273" data-name="Caminho 2273" d="M1061.13,619.47a.912.912,0,0,1-.1.09c-.01.01-.02.01-.03.02a9.693,9.693,0,0,1,3.49,7.39c0,5.48-4.72,9.95-10.53,9.95s-10.53-4.46-10.53-9.95a9.65,9.65,0,0,1,3.21-7.14,1.219,1.219,0,0,1-.17-.07,9.8,9.8,0,0,0-3.21,7.21c0,5.57,4.8,10.11,10.7,10.11s10.7-4.53,10.7-10.11A9.892,9.892,0,0,0,1061.13,619.47Z" fill="#fff375"/>
    </g>
    <g id="Grupo_2043" data-name="Grupo 2043">
      <path id="Caminho_2274" data-name="Caminho 2274" d="M1047.68,620.19a2.215,2.215,0,0,1-1.31-.19,2.137,2.137,0,0,1,1.11-.7,2.215,2.215,0,0,1,1.31.19A2.266,2.266,0,0,1,1047.68,620.19Z" fill="#fff375"/>
    </g>
    <g id="Grupo_2044" data-name="Grupo 2044">
      <path id="Caminho_2275" data-name="Caminho 2275" d="M1047.22,619.01a2.15,2.15,0,0,1-.85.99,2.1,2.1,0,0,1-.02-1.3,2.15,2.15,0,0,1,.85-.99A2.013,2.013,0,0,1,1047.22,619.01Z" fill="#fff375"/>
    </g>
    <g id="Grupo_2045" data-name="Grupo 2045">
      <path id="Caminho_2276" data-name="Caminho 2276" d="M1060.27,620.19a2.215,2.215,0,0,0,1.31-.19,2.137,2.137,0,0,0-1.11-.7,2.215,2.215,0,0,0-1.31.19A2.265,2.265,0,0,0,1060.27,620.19Z" fill="#fff375"/>
    </g>
    <g id="Grupo_2046" data-name="Grupo 2046">
      <path id="Caminho_2277" data-name="Caminho 2277" d="M1060.73,619.01a2.15,2.15,0,0,0,.85.99,2.1,2.1,0,0,0,.02-1.3,2.15,2.15,0,0,0-.85-.99A2.013,2.013,0,0,0,1060.73,619.01Z" fill="#fff375"/>
    </g>
  </g>
  <g id="Grupo_2048" data-name="Grupo 2048" transform="translate(-1031.503 -594.11)">
    <path id="Caminho_2278" data-name="Caminho 2278" d="M1053.8,633.7c2.98,0,2.9-1.2,2.9-1.53a4.528,4.528,0,0,0,0-.74.9.9,0,0,1-.04-.25s.04-6.5.04-6.7.04-.41.08-1.57a2.477,2.477,0,0,0-1.16-2.03,2.264,2.264,0,0,1-.41-1.45,6.534,6.534,0,0,0-.12-1.37c-.04-.29-.21-1.66-.21-1.82.17,0,.12-.08.12-.25a1.9,1.9,0,0,0-.17-.66c-.04-.04,0-.25,0-.25h.08c.08,0,0-.17-.08-.29a6,6,0,0,0-2.07,0c-.08.12-.17.29-.08.29h.08s.04.21,0,.25a2.236,2.236,0,0,0-.17.66c0,.17-.04.25.12.25,0,.17-.17,1.53-.21,1.82a6.473,6.473,0,0,0-.12,1.37,2.306,2.306,0,0,1-.41,1.45,2.477,2.477,0,0,0-1.16,2.03c.04,1.16.08,1.37.08,1.57s.04,6.7.04,6.7a.952.952,0,0,1-.04.25,4.536,4.536,0,0,0,0,.74C1050.91,632.5,1050.82,633.7,1053.8,633.7Z" fill="#fffedc"/>
  </g>
</svg>
