<svg id="Componente_4_1" data-name="Componente 4 – 1" xmlns="http://www.w3.org/2000/svg" width="43.717" height="56.79" viewBox="0 0 43.717 56.79">
  <g id="Grupo_1801" data-name="Grupo 1801" transform="translate(-1079.973 -588.34)">
    <path id="Caminho_2068" data-name="Caminho 2068" d="M1100.51,645.13l-3.66-5.99-5.39,4.5,5.54-33.76,9.06,1.49Z" fill="#b41c2b"/>
  </g>
  <g id="Grupo_1802" data-name="Grupo 1802" transform="translate(-1079.973 -588.34)">
    <path id="Caminho_2069" data-name="Caminho 2069" d="M1093.95,628.49a19.8,19.8,0,0,0,7.86,1.61c.4,0,.79-.01,1.18-.03l3.07-18.7-9.05-1.49Z" fill="#b41c2b"/>
  </g>
  <g id="Grupo_1803" data-name="Grupo 1803" transform="translate(-1079.973 -588.34)">
    <path id="Caminho_2070" data-name="Caminho 2070" d="M1106.17,644.9l2.99-6.35,5.85,3.88-9.2-32.95-8.83,2.47Z" fill="#f02f47"/>
  </g>
  <g id="Grupo_1804" data-name="Grupo 1804" transform="translate(-1079.973 -588.34)" opacity="0.48">
    <path id="Caminho_2071" data-name="Caminho 2071" d="M1102.04,630.1a19.932,19.932,0,0,0,8.91-2.21l-5.13-18.4-8.84,2.47Z" fill="#b41c2b"/>
  </g>
  <g id="Grupo_1805" data-name="Grupo 1805" transform="translate(-1079.973 -588.34)">
    <circle id="Elipse_38" data-name="Elipse 38" cx="18.17" cy="18.17" r="18.17" transform="translate(1079.973 623.706) rotate(-76.714)" fill="#ff9700"/>
  </g>
  <g id="Grupo_1806" data-name="Grupo 1806" transform="translate(-1079.973 -588.34)">
    <circle id="Elipse_39" data-name="Elipse 39" cx="16.43" cy="16.43" r="16.43" transform="translate(1085.016 594.015) rotate(-1.02)" fill="#ffcf03"/>
  </g>
  <g id="Grupo_1807" data-name="Grupo 1807" transform="translate(-1079.973 -588.34)">
    <path id="Caminho_2072" data-name="Caminho 2072" d="M1114.91,610.32c0-.18.02-.51-.06-1.9a2.519,2.519,0,1,0-.19-.93c-.09-.45-.2-.88-.33-1.31a2.633,2.633,0,0,0,2.01.95,2.532,2.532,0,0,0-2.41-2.09,12.819,12.819,0,0,0-.64-1.35,2.628,2.628,0,0,0,2.24.8,2.853,2.853,0,0,0-1.06-1.38,2.722,2.722,0,0,0-1.72-.33c-.29-.44-.61-.86-.94-1.27a2.636,2.636,0,0,0,2.2.14,2.536,2.536,0,0,0-3.04-1.05,14.081,14.081,0,0,0-1.37-1.19,2.622,2.622,0,0,0,2.2-.39,2.536,2.536,0,0,0-3.19-.29,13.5,13.5,0,0,0-1.24-.68,2.69,2.69,0,0,0,1.9-.81,2.514,2.514,0,0,0-3.15.29,14,14,0,0,0-1.82-.51,2.572,2.572,0,0,0,2.03-1.29,2.54,2.54,0,0,0-3.04,1.13,14.116,14.116,0,0,0-1.47-.1,2.5,2.5,0,0,0,1.71-1.58,2.534,2.534,0,0,0-2.83,1.61c-.32.02-.64.06-.95.1a2.809,2.809,0,0,0,.86-1.64,2.52,2.52,0,0,0-2.33,1.93,12.367,12.367,0,0,0-1.49.49,2.8,2.8,0,0,0,.53-1.89,2.507,2.507,0,0,0-1.81,2.47c-.45.24-.89.5-1.31.78a2.69,2.69,0,0,0,.06-1.98,2.514,2.514,0,0,0-1.16,2.81c-.26.22-.51.44-.75.68a2.867,2.867,0,0,0-.32-1.7,2.519,2.519,0,0,0-.74,2.86,11.209,11.209,0,0,0-.76,1.05,2.821,2.821,0,0,0-.65-1.65,2.53,2.53,0,0,0-.13,3,13.3,13.3,0,0,0-.62,1.44,2.739,2.739,0,0,0-1.05-1.62,2.525,2.525,0,0,0,.64,3,15.111,15.111,0,0,0-.28,1.52,2.721,2.721,0,0,0-1.45-1.4,2.518,2.518,0,0,0,1.35,2.76c-.01.34,0,.69.02,1.05a2.872,2.872,0,0,0-1.52-.96,2.522,2.522,0,0,0,1.7,2.48c.07.37.15.73.24,1.09a2.683,2.683,0,0,0-1.85-.99,2.54,2.54,0,0,0,2.26,2.27,14.212,14.212,0,0,0,.62,1.38,2.349,2.349,0,1,0,.58,1.01,18.257,18.257,0,0,0,1.14,1.56,2.462,2.462,0,0,0-2.46-.24,2.538,2.538,0,0,0,3.12.94,12.058,12.058,0,0,0,1.06.96,2.374,2.374,0,1,0,.92.69,13.29,13.29,0,0,0,1.14.69,2.54,2.54,0,0,0,.28.21,2.49,2.49,0,0,0-2.38.69,2.908,2.908,0,0,0,1.69.46,2.636,2.636,0,0,0,1.57-.8,13.354,13.354,0,0,0,1.38.5,2.277,2.277,0,0,0,.45.21,2.482,2.482,0,0,0-2.15,1.23,2.893,2.893,0,0,0,1.75.05,2.7,2.7,0,0,0,1.34-1.15,13.218,13.218,0,0,0,1.54.19,2.331,2.331,0,0,0,.35.06,2.5,2.5,0,0,0-1.79,1.71,2.534,2.534,0,0,0,2.73-1.75c.42-.01.84-.05,1.25-.1a2.667,2.667,0,0,0-1.12,1.79,2.49,2.49,0,0,0,2.39-2.01,12.22,12.22,0,0,0,2.17-.7,2.677,2.677,0,0,0-.74,2.05,2.511,2.511,0,0,0,1.87-2.58,11.111,11.111,0,0,0,1.68-1.07,2.479,2.479,0,0,0-.44,2.43,2.534,2.534,0,0,0,1.19-3.03c.64-.55.87-.84,1.37-1.33a2.494,2.494,0,0,0,.16,2.47,2.533,2.533,0,0,0,.42-3.22,11.826,11.826,0,0,0,.75-1.1,2.676,2.676,0,0,0,.63,2.1,2.531,2.531,0,0,0-.04-3.18,13.663,13.663,0,0,0,.63-1.53,2.487,2.487,0,0,0,1.03,2.04,2.54,2.54,0,0,0-.71-3.14c.24-.98.22-1.24.36-1.94a2.462,2.462,0,0,0,1.52,1.95,2.861,2.861,0,0,0-.2-1.73A2.968,2.968,0,0,0,1114.91,610.32Zm-.21.09a2.456,2.456,0,0,0-1.46,2.71,2.89,2.89,0,0,0,1.3-.98c-.06.36-.13.72-.22,1.07a2.534,2.534,0,0,0-2.13,2.3,2.851,2.851,0,0,0,1.66-.82c-.14.36-.29.72-.46,1.06a2.529,2.529,0,0,0-2.6,1.83,2.75,2.75,0,0,0,1.87-.53c-.2.31-.41.62-.64.91a2.516,2.516,0,0,0-2.77,1.41,2.932,2.932,0,0,0,1.58-.06q-.36.36-.75.69a2.5,2.5,0,0,0-3.02.7,2.881,2.881,0,0,0,1.67.31c-.32.21-.65.4-.98.58a2.549,2.549,0,0,0-3.17-.08,2.714,2.714,0,0,0,1.85.69,13.247,13.247,0,0,1-1.88.59,2.8,2.8,0,0,0-1.37-1,2.84,2.84,0,0,0-1.74.14,2.665,2.665,0,0,0,1.72,1.11,12.093,12.093,0,0,1-1.21.09,2.529,2.529,0,0,0-2.86-1.21,3,3,0,0,0,.99,1.13c-.32-.04-.64-.09-.95-.15a2.5,2.5,0,0,0-2.46-1.8,2.924,2.924,0,0,0,.68,1.32c-.31-.11-.62-.23-.92-.36a2.481,2.481,0,0,0-1.97-2.34,2.9,2.9,0,0,0,.4,1.52c-.21-.13-.43-.27-.63-.41a2.52,2.52,0,0,0-1.39-2.8,2.792,2.792,0,0,0,.18,1.86c-.26-.23-.51-.46-.75-.71a2.5,2.5,0,0,0-.94-2.95,2.838,2.838,0,0,0-.18,1.63,10.222,10.222,0,0,1-.59-.87,2.524,2.524,0,0,0-.17-3.13,2.818,2.818,0,0,0-.57,1.79c-.16-.33-.3-.66-.43-1a2.5,2.5,0,0,0,.58-3.1,2.611,2.611,0,0,0-.99,1.83q-.12-.465-.21-.93a2.489,2.489,0,0,0,1.22-1.3,2.89,2.89,0,0,0-.01-1.75,2.56,2.56,0,0,0-1.27,2.12c-.03-.08-.06-.17-.09-.25q-.06-.69-.06-1.38a2.764,2.764,0,0,0,1.35-1.12,2.866,2.866,0,0,0,.26-1.73,2.621,2.621,0,0,0-1.55,1.66,12.927,12.927,0,0,1,.28-1.65,2.727,2.727,0,0,0,1.59-.76,2.835,2.835,0,0,0,.67-1.61,2.586,2.586,0,0,0-2.01,1.45,11.937,11.937,0,0,1,.74-1.85,2.412,2.412,0,0,0,1.77-.3,2.8,2.8,0,0,0,1.03-1.41,2.582,2.582,0,0,0-2.29.94c.03-.1.06-.2.08-.3a13,13,0,0,1,.91-1.29,2.27,2.27,0,0,0,1.81.1,2.821,2.821,0,0,0,1.29-1.17,2.57,2.57,0,0,0-2.43.46,3,3,0,0,0,.17-.36,10.885,10.885,0,0,1,.93-.87,2.568,2.568,0,0,0,1.75.29,2.884,2.884,0,0,0,1.46-.95,2.557,2.557,0,0,0-2.41.03,12.991,12.991,0,0,1,1.55-.97,2.8,2.8,0,0,0,1.62.68,2.9,2.9,0,0,0,1.65-.57,2.543,2.543,0,0,0-2.35-.55,13.677,13.677,0,0,1,1.8-.63,2.5,2.5,0,0,0,1.41,1.08,2.9,2.9,0,0,0,1.74-.17,2.573,2.573,0,0,0-2.23-1.08,1.3,1.3,0,0,0,.17-.08,11.794,11.794,0,0,1,1.47-.18,2.491,2.491,0,0,0,2.79,1.36,2.834,2.834,0,0,0-1.26-1.37q.51.03,1.02.09a2.543,2.543,0,0,0,2.54,1.8,2.863,2.863,0,0,0-.93-1.48h0q.555.15,1.08.33a2.541,2.541,0,0,0,2.04,2.46,2.664,2.664,0,0,0-.83-1.96,12.2,12.2,0,0,1,1.28.7,2.512,2.512,0,0,0,1.54,2.75,2.719,2.719,0,0,0-.3-1.88,14.251,14.251,0,0,1,1.09.97,2.535,2.535,0,0,0,.83,3.03,2.8,2.8,0,0,0,.15-1.95c.28.35.55.72.8,1.1a2.46,2.46,0,0,0,.14,3.07,2.9,2.9,0,0,0,.61-1.75c.14.28.26.56.38.85a2.531,2.531,0,0,0-.36,3.15,2.686,2.686,0,0,0,.85-1.71,9.914,9.914,0,0,1,.24,1.05,2.508,2.508,0,0,0-.78,2.99,3,3,0,0,0,.99-1.18C1114.7,609.77,1114.7,610.09,1114.7,610.41Z" fill="#ff9700"/>
  </g>
  <g id="Grupo_1824" data-name="Grupo 1824" transform="translate(-1079.973 -588.34)">
    <g id="Grupo_1808" data-name="Grupo 1808">
      <path id="Caminho_2073" data-name="Caminho 2073" d="M1101.86,599.72c.48-.08,3.12,6.33,3.12,6.33s6.84.69,6.98,1.02-4.92,4.81-4.92,4.81,1.69,6.57,1.05,7.08-6.25-3.28-6.25-3.28-6,3.5-6.25,3.28,1.19-6.96,1.19-6.96-5.36-4.61-5.05-4.93,6.98-1.02,6.98-1.02S1101.37,599.79,1101.86,599.72Z" fill="#ff9700"/>
    </g>
    <g id="Grupo_1809" data-name="Grupo 1809" opacity="0.6">
      <path id="Caminho_2074" data-name="Caminho 2074" d="M1102.06,609.77c.24.42,5.43,7.63,5.6,7.66s-1.1-6.01-1.1-6.01Z" fill="#ff9700" fill-rule="evenodd"/>
    </g>
    <g id="Grupo_1810" data-name="Grupo 1810">
      <path id="Caminho_2075" data-name="Caminho 2075" d="M1102.06,609.77s9.16-2.58,9.16-2.42-4.68,4.2-4.68,4.2S1102.06,609.85,1102.06,609.77Z" fill="#ff9700"/>
    </g>
    <g id="Grupo_1811" data-name="Grupo 1811" opacity="0.6">
      <path id="Caminho_2076" data-name="Caminho 2076" d="M1101.98,600.36c-.04.73-.08,8.92-.08,8.92s2.54-3.03,2.58-3.19A57.512,57.512,0,0,0,1101.98,600.36Z" fill="#ff9700" fill-rule="evenodd"/>
    </g>
    <g id="Grupo_1812" data-name="Grupo 1812" opacity="0.5">
      <path id="Caminho_2077" data-name="Caminho 2077" d="M1097.34,611.56a49.47,49.47,0,0,0-1.29,6.13c.2-.1,5.3-7.64,5.1-7.81S1097.34,611.56,1097.34,611.56Z" fill="#ff9700"/>
    </g>
    <g id="Grupo_1813" data-name="Grupo 1813">
      <path id="Caminho_2078" data-name="Caminho 2078" d="M1092.29,607.31c.36.16,8.86,2.35,8.86,2.55a23.942,23.942,0,0,1-3.81,1.84A52.937,52.937,0,0,1,1092.29,607.31Z" fill="#ff9700"/>
    </g>
    <g id="Grupo_1814" data-name="Grupo 1814" opacity="0.6">
      <path id="Caminho_2079" data-name="Caminho 2079" d="M1101.58,610.43a47.538,47.538,0,0,1-.05,4.84c-.2.24-5.44,3.3-5.32,2.97S1101.54,610.22,1101.58,610.43Z" fill="#ff9700" fill-rule="evenodd"/>
    </g>
    <g id="Grupo_1815" data-name="Grupo 1815" opacity="0.5">
      <path id="Caminho_2080" data-name="Caminho 2080" d="M1101.98,610.57c.56.48,5.77,7.75,5.77,7.95a54.083,54.083,0,0,1-5.25-3.11A46.873,46.873,0,0,1,1101.98,610.57Z" fill="#ff9700"/>
    </g>
    <g id="Grupo_1816" data-name="Grupo 1816" opacity="0.5">
      <path id="Caminho_2081" data-name="Caminho 2081" d="M1104.96,606.62a24.192,24.192,0,0,0-2.54,2.62c.24,0,8.07-1.98,7.91-2.1A34.393,34.393,0,0,0,1104.96,606.62Z" fill="#ff9700"/>
    </g>
    <g id="Grupo_1817" data-name="Grupo 1817" opacity="0.5">
      <path id="Caminho_2082" data-name="Caminho 2082" d="M1093.02,607.18c.65,0,5.57-.65,5.57-.65l2.66,2.95S1097.28,608.35,1093.02,607.18Z" fill="#ff9700"/>
    </g>
    <g id="Grupo_1818" data-name="Grupo 1818" opacity="0.5">
      <path id="Caminho_2083" data-name="Caminho 2083" d="M1099.02,606.26a30.982,30.982,0,0,0,2.47,2.63c.09-.07.21-8.28.14-8.4S1100.5,603.51,1099.02,606.26Z" fill="#ff9700"/>
    </g>
    <g id="Grupo_1819" data-name="Grupo 1819">
      <path id="Caminho_2084" data-name="Caminho 2084" d="M1099.93,607.3c-.45-.5-.84-.95-.91-1.04.06-.12.13-.24.19-.35l2.42-2.04c-.01.72-.02,1.47-.03,2.16C1101.26,606.3,1100.51,606.86,1099.93,607.3Zm1.63.21-.79.7c.19.2.36.37.48.5l.27-.23C1101.54,608.24,1101.55,607.9,1101.56,607.51Z" fill="#ff9700"/>
    </g>
    <g id="Grupo_1820" data-name="Grupo 1820">
      <path id="Caminho_2085" data-name="Caminho 2085" d="M1104.47,613.83l-1.48,1.93c-.24-.15-.41-.27-.47-.31.48-.59,1.17-1.44,1.65-2.02C1104.27,613.55,1104.37,613.69,1104.47,613.83Zm2.37,3.32c-.15-.22-.32-.46-.5-.71l-.65.98c.3.18.6.35.86.51C1106.66,617.62,1106.77,617.34,1106.84,617.15Zm-4.66-4.15c.07.59.14,1.18.2,1.63.48-.52,1.09-1.2,1.49-1.63-.26-.36-.51-.69-.74-1Z" fill="#ff9700"/>
    </g>
    <g id="Grupo_1821" data-name="Grupo 1821">
      <path id="Caminho_2086" data-name="Caminho 2086" d="M1103.48,608.05c-.05.07-.55.79-.43.8s.02,0,7.22-1.66a50.231,50.231,0,0,1-7.84,2.05C1102.15,609.26,1103.48,608.05,1103.48,608.05Z" fill="#ff9700"/>
    </g>
    <g id="Grupo_1822" data-name="Grupo 1822">
      <path id="Caminho_2087" data-name="Caminho 2087" d="M1093.02,607.18c.72.12,7.14,1.7,7.31,1.7s.24-.12.02-.43c1,.93.91,1.03.91,1.03C1101.03,609.55,1093.02,607.18,1093.02,607.18Z" fill="#ff9700"/>
    </g>
    <g id="Grupo_1823" data-name="Grupo 1823">
      <path id="Caminho_2088" data-name="Caminho 2088" d="M1102.08,611.84c0-.23-.07-1.21.05-1.03s5.08,6.87,5.08,6.87c-1.37-2.63-5.17-7.64-5.29-7.46A6.936,6.936,0,0,0,1102.08,611.84Z" fill="#ff9700"/>
    </g>
  </g>
  <g id="Grupo_1841" data-name="Grupo 1841" transform="translate(-1079.973 -588.34)">
    <g id="Grupo_1825" data-name="Grupo 1825">
      <path id="Caminho_2089" data-name="Caminho 2089" d="M1101.85,601.03c.42-.07,2.7,5.47,2.7,5.47s5.91.6,6.04.88-4.25,4.15-4.25,4.15,1.46,5.68.91,6.11-5.4-2.84-5.4-2.84-5.18,3.03-5.4,2.84,1.03-6.01,1.03-6.01-4.63-3.98-4.37-4.26,6.04-.88,6.04-.88S1101.44,601.09,1101.85,601.03Z" fill="#fd0"/>
    </g>
    <g id="Grupo_1826" data-name="Grupo 1826" opacity="0.6">
      <path id="Caminho_2090" data-name="Caminho 2090" d="M1102.03,609.71c.21.36,4.69,6.59,4.84,6.62s-.95-5.19-.95-5.19Z" fill="#eba418" fill-rule="evenodd"/>
    </g>
    <g id="Grupo_1827" data-name="Grupo 1827">
      <path id="Caminho_2091" data-name="Caminho 2091" d="M1102.03,609.71s7.91-2.23,7.91-2.09-4.04,3.63-4.04,3.63S1102.03,609.78,1102.03,609.71Z" fill="#f09905"/>
    </g>
    <g id="Grupo_1828" data-name="Grupo 1828" opacity="0.6">
      <path id="Caminho_2092" data-name="Caminho 2092" d="M1101.96,601.59c-.03.63-.07,7.7-.07,7.7s2.2-2.61,2.23-2.75A48.531,48.531,0,0,0,1101.96,601.59Z" fill="#eba418" fill-rule="evenodd"/>
    </g>
    <g id="Grupo_1829" data-name="Grupo 1829" opacity="0.5">
      <path id="Caminho_2093" data-name="Caminho 2093" d="M1097.95,611.26a40.852,40.852,0,0,0-1.11,5.29c.18-.09,4.58-6.6,4.4-6.75A21.955,21.955,0,0,0,1097.95,611.26Z" fill="#fff"/>
    </g>
    <g id="Grupo_1830" data-name="Grupo 1830">
      <path id="Caminho_2094" data-name="Caminho 2094" d="M1093.59,607.58c.31.14,7.65,2.03,7.65,2.21a20.1,20.1,0,0,1-3.3,1.59A45.007,45.007,0,0,1,1093.59,607.58Z" fill="#f09905"/>
    </g>
    <g id="Grupo_1831" data-name="Grupo 1831" opacity="0.6">
      <path id="Caminho_2095" data-name="Caminho 2095" d="M1101.62,610.28a40.64,40.64,0,0,1-.04,4.18c-.17.21-4.7,2.85-4.6,2.57S1101.58,610.1,1101.62,610.28Z" fill="#eba418" fill-rule="evenodd"/>
    </g>
    <g id="Grupo_1832" data-name="Grupo 1832" opacity="0.5">
      <path id="Caminho_2096" data-name="Caminho 2096" d="M1101.96,610.41c.49.42,4.99,6.69,4.99,6.87a46.955,46.955,0,0,1-4.53-2.68A38.1,38.1,0,0,1,1101.96,610.41Z" fill="#fff"/>
    </g>
    <g id="Grupo_1833" data-name="Grupo 1833" opacity="0.5">
      <path id="Caminho_2097" data-name="Caminho 2097" d="M1104.54,606.99a20.736,20.736,0,0,0-2.2,2.27c.21,0,6.97-1.71,6.83-1.81A28.6,28.6,0,0,0,1104.54,606.99Z" fill="#fff"/>
    </g>
    <g id="Grupo_1834" data-name="Grupo 1834" opacity="0.5">
      <path id="Caminho_2098" data-name="Caminho 2098" d="M1094.22,607.48c.56,0,4.81-.56,4.81-.56l2.3,2.54C1101.33,609.47,1097.9,608.49,1094.22,607.48Z" fill="#fff"/>
    </g>
    <g id="Grupo_1835" data-name="Grupo 1835" opacity="0.5">
      <path id="Caminho_2099" data-name="Caminho 2099" d="M1099.4,606.68a26.945,26.945,0,0,0,2.14,2.27c.08-.06.18-7.16.12-7.26S1100.69,604.31,1099.4,606.68Z" fill="#fff"/>
    </g>
    <g id="Grupo_1836" data-name="Grupo 1836">
      <path id="Caminho_2100" data-name="Caminho 2100" d="M1100.19,607.58c-.39-.43-.73-.82-.79-.9.05-.1.11-.2.16-.31l2.09-1.76c-.01.62-.02,1.27-.03,1.87C1101.34,606.71,1100.69,607.2,1100.19,607.58Zm1.41.18-.68.6c.16.17.31.32.42.43l.24-.2C1101.58,608.39,1101.59,608.1,1101.6,607.76Z" fill="#fff"/>
    </g>
    <g id="Grupo_1837" data-name="Grupo 1837">
      <path id="Caminho_2101" data-name="Caminho 2101" d="M1104.12,613.22l-1.28,1.66c-.21-.13-.35-.23-.41-.27.41-.51,1.01-1.25,1.42-1.75Zm2.04,2.87c-.13-.19-.28-.4-.43-.62l-.57.84c.26.16.52.31.75.44C1106.01,616.5,1106.1,616.25,1106.16,616.09Zm-4.03-3.59c.06.51.12,1.02.17,1.41.41-.45.95-1.03,1.29-1.41-.23-.31-.44-.6-.64-.86Z" fill="#fff"/>
    </g>
    <g id="Grupo_1838" data-name="Grupo 1838">
      <path id="Caminho_2102" data-name="Caminho 2102" d="M1103.26,608.22c-.04.06-.48.68-.38.69s.01,0,6.24-1.43a44.878,44.878,0,0,1-6.78,1.78C1102.11,609.27,1103.26,608.22,1103.26,608.22Z" fill="#fff"/>
    </g>
    <g id="Grupo_1839" data-name="Grupo 1839">
      <path id="Caminho_2103" data-name="Caminho 2103" d="M1094.22,607.48c.62.1,6.17,1.47,6.31,1.47s.21-.1.02-.37c.86.8.78.89.78.89C1101.14,609.52,1094.22,607.48,1094.22,607.48Z" fill="#fff"/>
    </g>
    <g id="Grupo_1840" data-name="Grupo 1840">
      <path id="Caminho_2104" data-name="Caminho 2104" d="M1102.05,611.51c0-.2-.06-1.05.04-.89s4.39,5.93,4.39,5.93a38.479,38.479,0,0,0-4.57-6.45A5.785,5.785,0,0,0,1102.05,611.51Z" fill="#fff"/>
    </g>
  </g>
</svg>
