<svg id="Componente_2_1" data-name="Componente 2 – 1" xmlns="http://www.w3.org/2000/svg" width="38.366" height="51.659" viewBox="0 0 38.366 51.659">
  <g id="Grupo_1912" data-name="Grupo 1912" transform="translate(-986.967 -594.11)">
    <path id="Caminho_2163" data-name="Caminho 2163" d="M1017.69,594.11l-5.54,13.57h-11.5l5.11-13.57Z" fill="#7f0410"/>
  </g>
  <g id="Grupo_1913" data-name="Grupo 1913" transform="translate(-986.967 -594.11)">
    <path id="Caminho_2164" data-name="Caminho 2164" d="M1012.68,605.33h-12.46a1.477,1.477,0,0,0-1.48,1.48v7.93h15.42v-7.93A1.477,1.477,0,0,0,1012.68,605.33Zm.38,2.91H999.55v-.61a1.186,1.186,0,0,1,1.19-1.19h11.12a1.186,1.186,0,0,1,1.19,1.19v.61Z" fill="#c95506"/>
  </g>
  <g id="Grupo_1914" data-name="Grupo 1914" transform="translate(-986.967 -594.11)">
    <path id="Caminho_2165" data-name="Caminho 2165" d="M995.29,594.11l5.36,13.57h11.5l-5.23-13.57Z" fill="#b30617"/>
  </g>
  <g id="Grupo_1919" data-name="Grupo 1919" transform="translate(-986.967 -594.11)">
    <g id="Grupo_1915" data-name="Grupo 1915">
      <path id="Caminho_2166" data-name="Caminho 2166" d="M1003.2,607.68l-5.77-13.57h-.66l5.76,13.57Z" fill="#ffc12c"/>
    </g>
    <g id="Grupo_1916" data-name="Grupo 1916">
      <path id="Caminho_2167" data-name="Caminho 2167" d="M1005.31,607.68l-5.77-13.57h-.66l5.77,13.57Z" fill="#ffc12c"/>
    </g>
    <g id="Grupo_1917" data-name="Grupo 1917">
      <path id="Caminho_2168" data-name="Caminho 2168" d="M1007.72,607.68l-5.77-13.57h-.66l5.77,13.57Z" fill="#ffc12c"/>
    </g>
    <g id="Grupo_1918" data-name="Grupo 1918">
      <path id="Caminho_2169" data-name="Caminho 2169" d="M1010.04,607.68l-5.77-13.57h-.66l5.76,13.57Z" fill="#ffc12c"/>
    </g>
  </g>
  <g id="Grupo_1920" data-name="Grupo 1920" transform="translate(-986.967 -594.11)">
    <circle id="Elipse_42" data-name="Elipse 42" cx="16.72" cy="16.72" r="16.72" transform="translate(986.967 640.412) rotate(-80.782)" fill="#ffb839"/>
  </g>
  <g id="Grupo_1921" data-name="Grupo 1921" transform="translate(-986.967 -594.11)">
    <path id="Caminho_2170" data-name="Caminho 2170" d="M1017.68,614.51a16.72,16.72,0,0,1-23.64,23.64,16.72,16.72,0,1,0,23.64-23.64Z" fill="#ea7603"/>
  </g>
  <g id="Grupo_1922" data-name="Grupo 1922" transform="translate(-986.967 -594.11)">
    <circle id="Elipse_43" data-name="Elipse 43" cx="13.63" cy="13.63" r="13.63" transform="translate(990.512 637.857) rotate(-80.782)" fill="#ff9b50"/>
  </g>
  <g id="Grupo_1978" data-name="Grupo 1978" transform="translate(-986.967 -594.11)" opacity="0.69">
    <g id="Grupo_1925" data-name="Grupo 1925">
      <g id="Grupo_1923" data-name="Grupo 1923">
        <path id="Caminho_2171" data-name="Caminho 2171" d="M1004.78,636.23a2.118,2.118,0,0,1,.67,1.12,1.873,1.873,0,0,1-1.93-1.52A2.174,2.174,0,0,1,1004.78,636.23Z" fill="#ffb448"/>
      </g>
      <g id="Grupo_1924" data-name="Grupo 1924">
        <path id="Caminho_2172" data-name="Caminho 2172" d="M1004.14,637.32a.7.7,0,1,1-1.01.84A2.141,2.141,0,0,1,1004.14,637.32Z" fill="#ffb448"/>
      </g>
    </g>
    <g id="Grupo_1934" data-name="Grupo 1934">
      <g id="Grupo_1926" data-name="Grupo 1926">
        <path id="Caminho_2173" data-name="Caminho 2173" d="M1002.7,635.67a2.1,2.1,0,0,1,.51,1.2,2.17,2.17,0,0,1-1.19-.57,2.1,2.1,0,0,1-.51-1.2A2.17,2.17,0,0,1,1002.7,635.67Z" fill="#ffb448"/>
      </g>
      <g id="Grupo_1927" data-name="Grupo 1927">
        <path id="Caminho_2174" data-name="Caminho 2174" d="M1001.91,636.66a2.224,2.224,0,0,1,1.3.2,2.137,2.137,0,0,1-1.12.69,2.224,2.224,0,0,1-1.3-.2A2.137,2.137,0,0,1,1001.91,636.66Z" fill="#ffb448"/>
      </g>
      <g id="Grupo_1928" data-name="Grupo 1928">
        <path id="Caminho_2175" data-name="Caminho 2175" d="M1001.07,634.86a.7.7,0,1,1-1.08-.75A2.161,2.161,0,0,1,1001.07,634.86Z" fill="#ffb448"/>
      </g>
      <g id="Grupo_1929" data-name="Grupo 1929">
        <path id="Caminho_2176" data-name="Caminho 2176" d="M1000.13,635.71a2.141,2.141,0,0,1,1.25.41,2.165,2.165,0,0,1-1.21.51.7.7,0,1,1-.04-.92Z" fill="#ffb448"/>
      </g>
      <g id="Grupo_1930" data-name="Grupo 1930">
        <path id="Caminho_2177" data-name="Caminho 2177" d="M999.54,633.62a2.058,2.058,0,0,1-.01,1.3,2.092,2.092,0,0,1-.86-.98,2.058,2.058,0,0,1,.01-1.3A2.148,2.148,0,0,1,999.54,633.62Z" fill="#ffb448"/>
      </g>
      <g id="Grupo_1931" data-name="Grupo 1931">
        <path id="Caminho_2178" data-name="Caminho 2178" d="M998.41,634.23a2.206,2.206,0,0,1,1.12.69,2.16,2.16,0,0,1-1.3.2,2.206,2.206,0,0,1-1.12-.69A2.139,2.139,0,0,1,998.41,634.23Z" fill="#ffb448"/>
      </g>
      <g id="Grupo_1932" data-name="Grupo 1932">
        <path id="Caminho_2179" data-name="Caminho 2179" d="M998.38,632.19a.7.7,0,1,1-.6-1.15A2.14,2.14,0,0,1,998.38,632.19Z" fill="#ffb448"/>
      </g>
      <g id="Grupo_1933" data-name="Grupo 1933">
        <path id="Caminho_2180" data-name="Caminho 2180" d="M997.14,632.52a2.14,2.14,0,0,1,.92.93,2.241,2.241,0,0,1-1.32-.1,2.14,2.14,0,0,1-.92-.93A2.243,2.243,0,0,1,997.14,632.52Z" fill="#ffb448"/>
      </g>
    </g>
    <g id="Grupo_1943" data-name="Grupo 1943">
      <g id="Grupo_1935" data-name="Grupo 1935">
        <path id="Caminho_2181" data-name="Caminho 2181" d="M997.39,630.39a2.106,2.106,0,0,1-.57,1.17,2.076,2.076,0,0,1-.36-1.25.7.7,0,1,1,.93.08Z" fill="#ffb448"/>
      </g>
      <g id="Grupo_1936" data-name="Grupo 1936">
        <path id="Caminho_2182" data-name="Caminho 2182" d="M996.11,630.48a2.073,2.073,0,0,1,.71,1.09,2.205,2.205,0,0,1-1.27-.36,2.073,2.073,0,0,1-.71-1.09A2.107,2.107,0,0,1,996.11,630.48Z" fill="#ffb448"/>
      </g>
      <g id="Grupo_1937" data-name="Grupo 1937">
        <path id="Caminho_2183" data-name="Caminho 2183" d="M996.88,628.68a2.108,2.108,0,0,1-.75,1.07,2.063,2.063,0,0,1-.15-1.29,2.108,2.108,0,0,1,.75-1.07A2.063,2.063,0,0,1,996.88,628.68Z" fill="#ffb448"/>
      </g>
      <g id="Grupo_1938" data-name="Grupo 1938">
        <path id="Caminho_2184" data-name="Caminho 2184" d="M995.61,628.56a2.076,2.076,0,0,1,.53,1.19,2.149,2.149,0,0,1-1.19-.55,2.076,2.076,0,0,1-.53-1.19A2.177,2.177,0,0,1,995.61,628.56Z" fill="#ffb448"/>
      </g>
      <g id="Grupo_1939" data-name="Grupo 1939">
        <path id="Caminho_2185" data-name="Caminho 2185" d="M996.83,626.77a2.176,2.176,0,0,1-.99.86,2.1,2.1,0,0,1,.17-1.29,2.176,2.176,0,0,1,.99-.86A2.1,2.1,0,0,1,996.83,626.77Z" fill="#ffb448"/>
      </g>
      <g id="Grupo_1940" data-name="Grupo 1940">
        <path id="Caminho_2186" data-name="Caminho 2186" d="M995.62,626.35a.7.7,0,1,1-1.02-.82A2.118,2.118,0,0,1,995.62,626.35Z" fill="#ffb448"/>
      </g>
      <g id="Grupo_1941" data-name="Grupo 1941">
        <path id="Caminho_2187" data-name="Caminho 2187" d="M997.17,624.84a2.206,2.206,0,0,1-1.17.61,2.1,2.1,0,0,1,.47-1.21,2.206,2.206,0,0,1,1.17-.61A2.1,2.1,0,0,1,997.17,624.84Z" fill="#ffb448"/>
      </g>
      <g id="Grupo_1942" data-name="Grupo 1942">
        <path id="Caminho_2188" data-name="Caminho 2188" d="M996.1,624.15a.7.7,0,1,1-.8-1.04A2.212,2.212,0,0,1,996.1,624.15Z" fill="#ffb448"/>
      </g>
    </g>
    <g id="Grupo_1944" data-name="Grupo 1944">
      <path id="Caminho_2189" data-name="Caminho 2189" d="M997.87,623.25a2.184,2.184,0,0,1-1.28.33,2.108,2.108,0,0,1,.74-1.08.7.7,0,1,1,.54.75Z" fill="#ffb448"/>
    </g>
    <g id="Grupo_1945" data-name="Grupo 1945">
      <path id="Caminho_2190" data-name="Caminho 2190" d="M996.98,622.34a.7.7,0,1,1-.54-1.19A2.1,2.1,0,0,1,996.98,622.34Z" fill="#ffb448"/>
    </g>
    <g id="Grupo_1946" data-name="Grupo 1946">
      <path id="Caminho_2191" data-name="Caminho 2191" d="M998.74,621.82a.7.7,0,1,1,.9-.95A2.163,2.163,0,0,1,998.74,621.82Z" fill="#ffb448"/>
    </g>
    <g id="Grupo_1947" data-name="Grupo 1947">
      <path id="Caminho_2192" data-name="Caminho 2192" d="M998.01,620.78a.7.7,0,1,1-.35-1.26A2.09,2.09,0,0,1,998.01,620.78Z" fill="#ffb448"/>
    </g>
    <g id="Grupo_1950" data-name="Grupo 1950">
      <g id="Grupo_1948" data-name="Grupo 1948">
        <path id="Caminho_2193" data-name="Caminho 2193" d="M1008.48,636.14a.7.7,0,1,0,.57.72,2.118,2.118,0,0,0,.67-1.12A2.145,2.145,0,0,0,1008.48,636.14Z" fill="#ffb448"/>
      </g>
      <g id="Grupo_1949" data-name="Grupo 1949">
        <path id="Caminho_2194" data-name="Caminho 2194" d="M1009.13,637.23a.7.7,0,1,0,1.01.84A2.142,2.142,0,0,0,1009.13,637.23Z" fill="#ffb448"/>
      </g>
    </g>
    <g id="Grupo_1959" data-name="Grupo 1959">
      <g id="Grupo_1951" data-name="Grupo 1951">
        <path id="Caminho_2195" data-name="Caminho 2195" d="M1010.3,635.67a2.1,2.1,0,0,0-.51,1.2,2.17,2.17,0,0,0,1.19-.57,2.1,2.1,0,0,0,.51-1.2A2.17,2.17,0,0,0,1010.3,635.67Z" fill="#ffb448"/>
      </g>
      <g id="Grupo_1952" data-name="Grupo 1952">
        <path id="Caminho_2196" data-name="Caminho 2196" d="M1011.09,636.66a2.224,2.224,0,0,0-1.3.2,2.137,2.137,0,0,0,1.12.69,2.224,2.224,0,0,0,1.3-.2A2.137,2.137,0,0,0,1011.09,636.66Z" fill="#ffb448"/>
      </g>
      <g id="Grupo_1953" data-name="Grupo 1953">
        <path id="Caminho_2197" data-name="Caminho 2197" d="M1011.94,634.79a.7.7,0,1,0,1.08-.75A2.112,2.112,0,0,0,1011.94,634.79Z" fill="#ffb448"/>
      </g>
      <g id="Grupo_1954" data-name="Grupo 1954">
        <path id="Caminho_2198" data-name="Caminho 2198" d="M1012.88,635.64a2.141,2.141,0,0,0-1.25.41,2.165,2.165,0,0,0,1.21.51,2.141,2.141,0,0,0,1.25-.41A2.165,2.165,0,0,0,1012.88,635.64Z" fill="#ffb448"/>
      </g>
      <g id="Grupo_1955" data-name="Grupo 1955">
        <path id="Caminho_2199" data-name="Caminho 2199" d="M1013.41,633.59a2.058,2.058,0,0,0,.01,1.3,2.092,2.092,0,0,0,.86-.98,2.058,2.058,0,0,0-.01-1.3A2.149,2.149,0,0,0,1013.41,633.59Z" fill="#ffb448"/>
      </g>
      <g id="Grupo_1956" data-name="Grupo 1956">
        <path id="Caminho_2200" data-name="Caminho 2200" d="M1014.54,634.19a2.206,2.206,0,0,0-1.12.69,2.16,2.16,0,0,0,1.3.2,2.206,2.206,0,0,0,1.12-.69A2.247,2.247,0,0,0,1014.54,634.19Z" fill="#ffb448"/>
      </g>
      <g id="Grupo_1957" data-name="Grupo 1957">
        <path id="Caminho_2201" data-name="Caminho 2201" d="M1014.63,632.06a2.076,2.076,0,0,0,.32,1.26,2.122,2.122,0,0,0,.61-1.15,2.076,2.076,0,0,0-.32-1.26A2.123,2.123,0,0,0,1014.63,632.06Z" fill="#ffb448"/>
      </g>
      <g id="Grupo_1958" data-name="Grupo 1958">
        <path id="Caminho_2202" data-name="Caminho 2202" d="M1015.87,632.39a2.14,2.14,0,0,0-.92.93,2.241,2.241,0,0,0,1.32-.1,2.14,2.14,0,0,0,.92-.93A2.24,2.24,0,0,0,1015.87,632.39Z" fill="#ffb448"/>
      </g>
    </g>
    <g id="Grupo_1968" data-name="Grupo 1968">
      <g id="Grupo_1960" data-name="Grupo 1960">
        <path id="Caminho_2203" data-name="Caminho 2203" d="M1015.51,630.36a2.106,2.106,0,0,0,.57,1.17,2.076,2.076,0,0,0,.36-1.25,2.106,2.106,0,0,0-.57-1.17A2.076,2.076,0,0,0,1015.51,630.36Z" fill="#ffb448"/>
      </g>
      <g id="Grupo_1961" data-name="Grupo 1961">
        <path id="Caminho_2204" data-name="Caminho 2204" d="M1016.79,630.44a2.073,2.073,0,0,0-.71,1.09,2.205,2.205,0,0,0,1.27-.36,2.073,2.073,0,0,0,.71-1.09A2.19,2.19,0,0,0,1016.79,630.44Z" fill="#ffb448"/>
      </g>
      <g id="Grupo_1962" data-name="Grupo 1962">
        <path id="Caminho_2205" data-name="Caminho 2205" d="M1016.02,628.64a2.108,2.108,0,0,0,.75,1.07,2.063,2.063,0,0,0,.15-1.29,2.108,2.108,0,0,0-.75-1.07A2.062,2.062,0,0,0,1016.02,628.64Z" fill="#ffb448"/>
      </g>
      <g id="Grupo_1963" data-name="Grupo 1963">
        <path id="Caminho_2206" data-name="Caminho 2206" d="M1017.29,628.52a2.076,2.076,0,0,0-.53,1.19,2.149,2.149,0,0,0,1.19-.55,2.076,2.076,0,0,0,.53-1.19A2.177,2.177,0,0,0,1017.29,628.52Z" fill="#ffb448"/>
      </g>
      <g id="Grupo_1964" data-name="Grupo 1964">
        <path id="Caminho_2207" data-name="Caminho 2207" d="M1016.06,626.79a2.176,2.176,0,0,0,.99.86,2.1,2.1,0,0,0-.17-1.29,2.176,2.176,0,0,0-.99-.86A2.1,2.1,0,0,0,1016.06,626.79Z" fill="#ffb448"/>
      </g>
      <g id="Grupo_1965" data-name="Grupo 1965">
        <path id="Caminho_2208" data-name="Caminho 2208" d="M1017.27,626.37a.7.7,0,1,0,1.02-.82A2.118,2.118,0,0,0,1017.27,626.37Z" fill="#ffb448"/>
      </g>
      <g id="Grupo_1966" data-name="Grupo 1966">
        <path id="Caminho_2209" data-name="Caminho 2209" d="M1015.71,624.86a2.206,2.206,0,0,0,1.17.61,2.1,2.1,0,0,0-.47-1.21,2.206,2.206,0,0,0-1.17-.61A2.024,2.024,0,0,0,1015.71,624.86Z" fill="#ffb448"/>
      </g>
      <g id="Grupo_1967" data-name="Grupo 1967">
        <path id="Caminho_2210" data-name="Caminho 2210" d="M1016.78,624.18a.7.7,0,1,0,.8-1.04A2.091,2.091,0,0,0,1016.78,624.18Z" fill="#ffb448"/>
      </g>
    </g>
    <g id="Grupo_1969" data-name="Grupo 1969">
      <path id="Caminho_2211" data-name="Caminho 2211" d="M1015.03,623.3a2.184,2.184,0,0,0,1.28.33,2.108,2.108,0,0,0-.74-1.08,2.184,2.184,0,0,0-1.28-.33A2.07,2.07,0,0,0,1015.03,623.3Z" fill="#ffb448"/>
    </g>
    <g id="Grupo_1970" data-name="Grupo 1970">
      <path id="Caminho_2212" data-name="Caminho 2212" d="M1015.91,622.39a.7.7,0,1,0,.54-1.19A2.1,2.1,0,0,0,1015.91,622.39Z" fill="#ffb448"/>
    </g>
    <g id="Grupo_1971" data-name="Grupo 1971">
      <path id="Caminho_2213" data-name="Caminho 2213" d="M1014.1,621.88a.7.7,0,1,0-.9-.95A2.163,2.163,0,0,0,1014.1,621.88Z" fill="#ffb448"/>
    </g>
    <g id="Grupo_1972" data-name="Grupo 1972">
      <path id="Caminho_2214" data-name="Caminho 2214" d="M1014.83,620.84a.7.7,0,1,0,.34-1.26A2.109,2.109,0,0,0,1014.83,620.84Z" fill="#ffb448"/>
    </g>
    <g id="Grupo_1973" data-name="Grupo 1973">
      <path id="Caminho_2215" data-name="Caminho 2215" d="M1013.61,619.83a.906.906,0,0,1-.1.09c-.01.01-.02.01-.03.02a9.693,9.693,0,0,1,3.49,7.39c0,5.48-4.72,9.95-10.53,9.95s-10.53-4.46-10.53-9.95a9.65,9.65,0,0,1,3.21-7.14,1.219,1.219,0,0,1-.17-.07,9.8,9.8,0,0,0-3.21,7.21c0,5.57,4.8,10.11,10.7,10.11s10.7-4.53,10.7-10.11A9.842,9.842,0,0,0,1013.61,619.83Z" fill="#ffb448"/>
    </g>
    <g id="Grupo_1974" data-name="Grupo 1974">
      <path id="Caminho_2216" data-name="Caminho 2216" d="M1000.16,620.55a2.215,2.215,0,0,1-1.31-.19,2.138,2.138,0,0,1,1.11-.7,2.215,2.215,0,0,1,1.31.19A2.137,2.137,0,0,1,1000.16,620.55Z" fill="#ffb448"/>
    </g>
    <g id="Grupo_1975" data-name="Grupo 1975">
      <path id="Caminho_2217" data-name="Caminho 2217" d="M999.71,619.37a2.15,2.15,0,0,1-.85.99,2.1,2.1,0,0,1-.02-1.3,2.15,2.15,0,0,1,.85-.99A2.1,2.1,0,0,1,999.71,619.37Z" fill="#ffb448"/>
    </g>
    <g id="Grupo_1976" data-name="Grupo 1976">
      <path id="Caminho_2218" data-name="Caminho 2218" d="M1012.76,620.55a2.215,2.215,0,0,0,1.31-.19,2.138,2.138,0,0,0-1.11-.7,2.215,2.215,0,0,0-1.31.19A2.138,2.138,0,0,0,1012.76,620.55Z" fill="#ffb448"/>
    </g>
    <g id="Grupo_1977" data-name="Grupo 1977">
      <path id="Caminho_2219" data-name="Caminho 2219" d="M1013.21,619.37a2.15,2.15,0,0,0,.85.99,2.1,2.1,0,0,0,.02-1.3,2.15,2.15,0,0,0-.85-.99A2.1,2.1,0,0,0,1013.21,619.37Z" fill="#ffb448"/>
    </g>
  </g>
  <g id="Grupo_1979" data-name="Grupo 1979" transform="translate(-986.967 -594.11)">
    <path id="Caminho_2220" data-name="Caminho 2220" d="M1006.25,633.7c2.98,0,2.9-1.2,2.9-1.53a4.535,4.535,0,0,0,0-.74.9.9,0,0,1-.04-.25s.04-6.5.04-6.7.04-.41.08-1.57a2.477,2.477,0,0,0-1.16-2.03,2.264,2.264,0,0,1-.41-1.45,6.53,6.53,0,0,0-.12-1.37c-.04-.29-.21-1.66-.21-1.82.17,0,.12-.08.12-.25a1.9,1.9,0,0,0-.17-.66c-.05-.04,0-.25,0-.25h.08c.08,0,0-.17-.08-.29a6,6,0,0,0-2.07,0c-.08.12-.17.29-.08.29h.08s.04.21,0,.25a2.238,2.238,0,0,0-.17.66c0,.17-.04.25.12.25,0,.17-.17,1.53-.21,1.82a6.469,6.469,0,0,0-.12,1.37,2.306,2.306,0,0,1-.41,1.45,2.477,2.477,0,0,0-1.16,2.03c.04,1.16.08,1.37.08,1.57s.04,6.7.04,6.7a.953.953,0,0,1-.04.25,4.543,4.543,0,0,0,0,.74C1003.35,632.5,1003.27,633.7,1006.25,633.7Z" fill="#ffcc7b"/>
  </g>
</svg>
