<svg xmlns="http://www.w3.org/2000/svg" width="28.26" height="51.55" viewBox="0 0 28.26 51.55">
  <g id="Grupo_2167" data-name="Grupo 2167" transform="translate(-523.6 -499.73)">
    <g id="Grupo_158" data-name="Grupo 158">
      <path id="Caminho_177" data-name="Caminho 177" d="M539.84,531.52h-4.22a3.55,3.55,0,0,1,0,3.93h4.22A3.52,3.52,0,0,1,539.84,531.52Z" fill="#ff8b00"/>
    </g>
    <g id="Grupo_159" data-name="Grupo 159">
      <path id="Caminho_178" data-name="Caminho 178" d="M535.62,531.52c0,.01.1.15.21.38a2.559,2.559,0,0,1,1.96,1.2,2.968,2.968,0,0,1,.07,2.34h1.98a3.525,3.525,0,0,1,0-3.93C538.77,531.52,536.7,531.52,535.62,531.52Z" fill="#f08300"/>
    </g>
    <g id="Grupo_160" data-name="Grupo 160">
      <path id="Caminho_179" data-name="Caminho 179" d="M545.99,522.99a12.914,12.914,0,0,1,3.83-2.79,1.189,1.189,0,0,0,.65-1.05v-6.58c0-.42-.62-.23-.99-.27-.47,0-.2.7-.27,1.86a1.541,1.541,0,0,1-1.54,1.54h-1.66v-1.37h1.66c.3,0,.11-.4.17-1.75a1.652,1.652,0,0,1,1.65-1.65h.72a1.652,1.652,0,0,1,1.65,1.65v6.58c0,2.98-3.28,2.68-6.02,6.56a12.034,12.034,0,0,1-1.05,1.07A8.461,8.461,0,0,0,545.99,522.99Z" fill="#e87e00"/>
    </g>
    <g id="Grupo_161" data-name="Grupo 161">
      <path id="Caminho_180" data-name="Caminho 180" d="M529.47,522.99a12.914,12.914,0,0,0-3.83-2.79,1.189,1.189,0,0,1-.65-1.05v-6.58c0-.42.62-.23.99-.27.47,0,.2.7.27,1.86a1.541,1.541,0,0,0,1.54,1.54h1.66v-1.37h-1.66c-.3,0-.11-.4-.17-1.75a1.652,1.652,0,0,0-1.65-1.65h-.72a1.652,1.652,0,0,0-1.65,1.65v6.58c0,2.98,3.28,2.68,6.02,6.56a12.034,12.034,0,0,0,1.05,1.07A8.588,8.588,0,0,1,529.47,522.99Z" fill="#ff8b00"/>
    </g>
    <g id="Grupo_162" data-name="Grupo 162">
      <path id="Caminho_181" data-name="Caminho 181" d="M542.18,509.17h-8.9l-2.26,2.12h13.42Z" fill="#ffea01"/>
    </g>
    <g id="Grupo_163" data-name="Grupo 163">
      <path id="Caminho_182" data-name="Caminho 182" d="M545.53,511.29H529.94a1.351,1.351,0,0,0-1.35,1.35h18.28A1.342,1.342,0,0,0,545.53,511.29Z" fill="#ffb600"/>
    </g>
    <g id="Grupo_164" data-name="Grupo 164">
      <path id="Caminho_183" data-name="Caminho 183" d="M528.59,512.64v.34a.77.77,0,0,0,.77.77H546.1a.77.77,0,0,0,.77-.77v-.34Z" fill="#d67205"/>
    </g>
    <g id="Grupo_167" data-name="Grupo 167">
      <g id="Grupo_165" data-name="Grupo 165">
        <path id="Caminho_184" data-name="Caminho 184" d="M545.99,522.99a8.36,8.36,0,0,1-1.22,3.8,13.638,13.638,0,0,0,1.05-1.07c.09-.13.19-.26.29-.39a9.007,9.007,0,0,0,.49-2.93v-.02C546.39,522.57,546.19,522.77,545.99,522.99Z" fill="#cc6f00"/>
      </g>
      <g id="Grupo_166" data-name="Grupo 166">
        <rect id="Ret창ngulo_11" data-name="Ret창ngulo 11" width="0.58" height="1.37" transform="translate(546.02 514.32)" fill="#cc6f00"/>
      </g>
    </g>
    <g id="Grupo_170" data-name="Grupo 170">
      <g id="Grupo_168" data-name="Grupo 168">
        <path id="Caminho_185" data-name="Caminho 185" d="M529.47,522.99c-.19-.22-.39-.42-.6-.62v.02a9.007,9.007,0,0,0,.49,2.93c.1.12.19.25.29.39a12.034,12.034,0,0,0,1.05,1.07A8.176,8.176,0,0,1,529.47,522.99Z" fill="#ff5e00"/>
      </g>
      <g id="Grupo_169" data-name="Grupo 169">
        <rect id="Ret창ngulo_12" data-name="Ret창ngulo 12" width="0.58" height="1.37" transform="translate(528.87 514.32)" fill="#ff5e00"/>
      </g>
    </g>
    <g id="Grupo_171" data-name="Grupo 171">
      <path id="Caminho_186" data-name="Caminho 186" d="M529.45,513.75v8.64a8.386,8.386,0,0,0,5.97,8.03h4.62a8.4,8.4,0,0,0,5.97-8.03v-8.64Z" fill="#ffb600"/>
    </g>
    <g id="Grupo_172" data-name="Grupo 172">
      <path id="Caminho_187" data-name="Caminho 187" d="M534.09,529.9h0a11.914,11.914,0,0,0,3.95-9.12,12.439,12.439,0,0,0-2.09-7.03h-6.51v8.64A8.411,8.411,0,0,0,534.09,529.9Z" fill="#ffb600"/>
    </g>
    <g id="Grupo_173" data-name="Grupo 173">
      <path id="Caminho_188" data-name="Caminho 188" d="M535.42,530.43v1.09h4.62v-1.09Z" fill="#d67205"/>
    </g>
    <g id="Grupo_174" data-name="Grupo 174">
      <path id="Caminho_189" data-name="Caminho 189" d="M535.42,530.78h4.62v-.35h-4.62Z" fill="#bd6504"/>
    </g>
    <g id="Grupo_175" data-name="Grupo 175">
      <path id="Caminho_190" data-name="Caminho 190" d="M540.04,535.45h-4.62a.77.77,0,0,0-.77.77v.12h6.17v-.12A.772.772,0,0,0,540.04,535.45Z" fill="#d67205"/>
    </g>
    <g id="Grupo_176" data-name="Grupo 176">
      <path id="Caminho_191" data-name="Caminho 191" d="M533.77,536.34v8.28h7.92v-8.28Z" fill="#ffb10f"/>
    </g>
    <g id="Grupo_177" data-name="Grupo 177">
      <path id="Caminho_192" data-name="Caminho 192" d="M533.77,544.05a4.051,4.051,0,0,0,.7.06c2.67,0,4.83-2.66,4.83-5.93a6.928,6.928,0,0,0-.24-1.84h-5.3v7.71Z" fill="#ffb10f"/>
    </g>
    <g id="Grupo_178" data-name="Grupo 178">
      <path id="Caminho_193" data-name="Caminho 193" d="M542.56,544.62h-9.65a.57.57,0,0,0-.57.57v.15h10.8v-.15A.592.592,0,0,0,542.56,544.62Z" fill="#ffdc01"/>
    </g>
    <g id="Grupo_179" data-name="Grupo 179">
      <path id="Caminho_194" data-name="Caminho 194" d="M531.24,545.35v4.86h12.98v-4.86Z" fill="#893003"/>
    </g>
    <g id="Grupo_180" data-name="Grupo 180">
      <path id="Caminho_195" data-name="Caminho 195" d="M531.24,545.35v4.74c.23.01.47.02.71.02,4.04,0,7.4-2.05,8.15-4.76Z" fill="#893003"/>
    </g>
    <g id="Grupo_181" data-name="Grupo 181">
      <path id="Caminho_196" data-name="Caminho 196" d="M544.68,550.21h-13.9l-.83.83v.24h15.57v-.24C545.19,550.72,545.01,550.53,544.68,550.21Z" fill="#ffb600"/>
    </g>
    <g id="Grupo_182" data-name="Grupo 182">
      <path id="Caminho_197" data-name="Caminho 197" d="M538.65,507.63h-1.84a1.046,1.046,0,0,0-1.04,1.04v.51h3.92v-.51A1.039,1.039,0,0,0,538.65,507.63Z" fill="#ff8b00"/>
    </g>
    <g id="Grupo_183" data-name="Grupo 183" opacity="0.69">
      <path id="Caminho_198" data-name="Caminho 198" d="M538.04,508.25c0-.25-.69-.46-1.66-.54a1.041,1.041,0,0,0-.61.95v.15C537.04,508.8,538.04,508.56,538.04,508.25Z" fill="#ff8b00"/>
    </g>
    <g id="Grupo_184" data-name="Grupo 184">
      <path id="Caminho_199" data-name="Caminho 199" d="M536.81,506.75v.88h1.86v-.88Z" fill="#d67205"/>
    </g>
    <g id="Grupo_185" data-name="Grupo 185">
      <path id="Caminho_200" data-name="Caminho 200" d="M536.81,507.14a3.987,3.987,0,0,0,1.86,0v-.4h-1.86Z" fill="#bd6504"/>
    </g>
    <g id="Grupo_186" data-name="Grupo 186">
      <circle id="Elipse_3" data-name="Elipse 3" cx="3.55" cy="3.55" r="3.55" transform="translate(534.052 499.927) rotate(-1.587)" fill="#d67205"/>
    </g>
    <g id="Grupo_187" data-name="Grupo 187">
      <path id="Caminho_201" data-name="Caminho 201" d="M541.18,503.36c0,.36-.32.66-.42.98s-.04.77-.24,1.04-.64.34-.92.55-.47.6-.81.71c-.32.1-.71-.1-1.07-.1s-.74.2-1.07.1-.53-.5-.81-.71-.71-.27-.92-.55-.13-.71-.24-1.04-.42-.63-.42-.98.32-.66.42-.98.04-.77.24-1.04.64-.34.92-.55.47-.6.81-.71c.32-.1.71.1,1.07.1s.74-.2,1.07-.1.53.5.81.71.71.27.92.55.13.71.24,1.04S541.18,503,541.18,503.36Z" fill="#ff8b00"/>
    </g>
    <g id="Grupo_188" data-name="Grupo 188">
      <path id="Caminho_202" data-name="Caminho 202" d="M538.59,506.42a1.884,1.884,0,0,1-.37-.06,1.75,1.75,0,0,0-.98,0,1.774,1.774,0,0,1-.37.06.508.508,0,0,1-.13-.02,1.059,1.059,0,0,1-.39-.33,2.186,2.186,0,0,0-.34-.34,2.217,2.217,0,0,0-.43-.23.671.671,0,0,1-.56-.76,2.676,2.676,0,0,0-.08-.48,2.06,2.06,0,0,0-.21-.42.676.676,0,0,1,0-.96,2.062,2.062,0,0,0,.21-.42,2.009,2.009,0,0,0,.08-.48.671.671,0,0,1,.56-.76,1.781,1.781,0,0,0,.43-.23,2.188,2.188,0,0,0,.34-.34.971.971,0,0,1,.39-.33.506.506,0,0,1,.13-.02,1.884,1.884,0,0,1,.37.06,1.75,1.75,0,0,0,.98,0,1.774,1.774,0,0,1,.37-.06.508.508,0,0,1,.13.02,1.059,1.059,0,0,1,.39.33,2.186,2.186,0,0,0,.34.34,2.217,2.217,0,0,0,.43.23.671.671,0,0,1,.56.76,2.676,2.676,0,0,0,.08.48,2.06,2.06,0,0,0,.21.42.676.676,0,0,1,0,.96,2.062,2.062,0,0,0-.21.42,2.009,2.009,0,0,0-.08.48.671.671,0,0,1-.56.76,1.781,1.781,0,0,0-.43.23,2.188,2.188,0,0,0-.34.34.971.971,0,0,1-.39.33A.508.508,0,0,1,538.59,506.42Z" fill="#ffb600"/>
    </g>
    <g id="Grupo_189" data-name="Grupo 189">
      <circle id="Elipse_4" data-name="Elipse 4" cx="2.51" cy="2.51" r="2.51" transform="translate(535.22 500.85)" fill="#ff8b00"/>
    </g>
    <g id="Grupo_190" data-name="Grupo 190">
      <circle id="Elipse_5" data-name="Elipse 5" cx="2.39" cy="2.39" r="2.39" transform="translate(535.34 500.97)" fill="#d67205"/>
    </g>
    <g id="Grupo_191" data-name="Grupo 191">
      <circle id="Elipse_6" data-name="Elipse 6" cx="2.17" cy="2.17" r="2.17" transform="translate(535.56 501.19)" fill="#ffdc01"/>
    </g>
    <g id="Grupo_196" data-name="Grupo 196">
      <g id="Grupo_192" data-name="Grupo 192">
        <path id="Caminho_203" data-name="Caminho 203" d="M538.61,505.34,536,502.05a2.843,2.843,0,0,0-.23.37l2.42,3.05A1.868,1.868,0,0,0,538.61,505.34Z" fill="#ffb10f"/>
      </g>
      <g id="Grupo_193" data-name="Grupo 193">
        <path id="Caminho_204" data-name="Caminho 204" d="M537.38,505.5l-1.81-2.28v.15a1.209,1.209,0,0,0,.01.19l1.48,1.87C537.16,505.45,537.27,505.48,537.38,505.5Z" fill="#ffb10f"/>
      </g>
      <g id="Grupo_194" data-name="Grupo 194">
        <path id="Caminho_205" data-name="Caminho 205" d="M539.39,504.76l-2.64-3.33c-.06.03-.12.07-.18.1l2.68,3.38A1.908,1.908,0,0,1,539.39,504.76Z" fill="#ffb10f"/>
      </g>
      <g id="Grupo_195" data-name="Grupo 195">
        <path id="Caminho_206" data-name="Caminho 206" d="M539.83,503.89l-2.14-2.7a1.42,1.42,0,0,0-.36.04l2.38,3A1.961,1.961,0,0,0,539.83,503.89Z" fill="#ffb10f"/>
      </g>
    </g>
    <g id="Grupo_197" data-name="Grupo 197">
      <path id="Caminho_207" data-name="Caminho 207" d="M530.69,515.22c-.24,7.98.5,9.32.5,9.3a.177.177,0,0,1-.33.13C530.23,522.87,530.57,517.1,530.69,515.22Z" fill="#ffb600"/>
    </g>
  </g>
</svg>
